<?xml version="1.0" standalone="no"?>
<!DOCTYPE svg PUBLIC "-//W3C//DTD SVG 1.1//EN" "http://www.w3.org/Graphics/SVG/1.1/DTD/svg11.dtd" >
<svg xmlns="http://www.w3.org/2000/svg">
<metadata>
<json>
<![CDATA[
{
	"fontFamily": "serrala",
	"majorVersion": 1,
	"minorVersion": 2,
	"version": "Version 1.2",
	"fontId": "serrala",
	"psName": "serrala",
	"subFamily": "Regular",
	"fullName": "serrala",
	"description": "Font generated by IcoMoon."
}
]]>
</json>
</metadata>
<defs>
<font id="serrala" horiz-adv-x="1024">
<font-face units-per-em="1024" ascent="960" descent="-64" />
<missing-glyph horiz-adv-x="1024" />
<glyph unicode="&#x20;" horiz-adv-x="512" d="" />
<glyph unicode="&#xe900;" glyph-name="add-circle" data-tags="add-universal" d="M501.333 55.467c-229.376 0-416 186.624-416 416s186.624 416 416 416c229.376 0 416-186.624 416-416s-186.624-416-416-416zM501.333 823.467c-194.112 0-352-157.888-352-352 0-194.048 157.888-352 352-352 194.048 0 352 157.952 352 352 0 194.112-157.952 352-352 352zM309.333 439.467c-17.664 0-32 14.336-32 32s14.336 32 32 32h159.991v160c0 17.664 14.336 32 32 32s32-14.336 32-32v-160h160.009c17.664 0 32-14.336 32-32s-14.336-32-32-32h-160.009v-160c0-17.664-14.336-32-32-32s-32 14.336-32 32v160h-159.991z" />
<glyph unicode="&#xe901;" glyph-name="add" data-tags="add" d="M768 418.133h-213.333v-213.333c0-23.467-19.2-42.667-42.667-42.667s-42.667 19.2-42.667 42.667v213.333h-213.333c-23.467 0-42.667 19.2-42.667 42.667s19.2 42.667 42.667 42.667h213.333v213.333c0 23.467 19.2 42.667 42.667 42.667s42.667-19.2 42.667-42.667v-213.333h213.333c23.467 0 42.667-19.2 42.667-42.667s-19.2-42.667-42.667-42.667z" />
<glyph unicode="&#xe902;" glyph-name="alert-circle" data-tags="alert-circle" d="M512 844.8c-212.077 0-384-171.923-384-384 0-212.079 171.923-384 384-384 212.079 0 384 171.921 384 384 0 212.077-171.921 384-384 384zM42.667 460.8c0 259.206 210.128 469.333 469.333 469.333 259.204 0 469.333-210.128 469.333-469.333 0-259.204-210.129-469.333-469.333-469.333-259.206 0-469.333 210.129-469.333 469.333zM469.333 290.133c0 23.565 19.102 42.667 42.667 42.667h0.427c23.565 0 42.667-19.102 42.667-42.667s-19.102-42.667-42.667-42.667h-0.427c-23.565 0-42.667 19.102-42.667 42.667zM512 674.133c23.565 0 42.667-19.103 42.667-42.667v-170.667c0-23.565-19.102-42.667-42.667-42.667s-42.667 19.102-42.667 42.667v170.667c0 23.564 19.102 42.667 42.667 42.667z" />
<glyph unicode="&#xe903;" glyph-name="alert-triangle" data-tags="alert-triangle" d="M449.203 875.387c19.17 10.793 40.798 16.463 62.797 16.463s43.627-5.67 62.797-16.463c19.17-10.793 35.234-26.344 46.643-45.153l0.124-0.203 361.732-603.898c11.179-19.354 17.092-41.297 17.152-63.646 0.064-22.353-5.726-44.331-16.794-63.748-11.068-19.413-27.029-35.597-46.293-46.929-19.26-11.337-41.156-17.429-63.505-17.677l-0.469-0.004-723.241 0.004c-22.349 0.243-44.244 6.34-63.507 17.677-19.263 11.332-35.222 27.516-46.29 46.929-11.068 19.418-16.859 41.395-16.796 63.748 0.063 22.349 5.976 44.292 17.153 63.646l0.347 0.589 361.509 603.512c11.409 18.809 27.472 34.36 46.642 45.153zM475.571 786.063l-361.109-602.843c-3.634-6.391-5.556-13.615-5.577-20.971-0.021-7.454 1.909-14.775 5.598-21.248s9.009-11.87 15.43-15.646c6.365-3.746 13.591-5.773 20.973-5.888h722.226c7.381 0.115 14.609 2.142 20.975 5.888 6.421 3.776 11.738 9.173 15.428 15.646s5.619 13.794 5.598 21.248c-0.017 7.351-1.941 14.575-5.572 20.966l-361.114 602.848c-3.797 6.231-9.135 11.385-15.497 14.966-6.387 3.598-13.598 5.487-20.932 5.487-7.33 0-14.541-1.89-20.932-5.487-6.362-3.581-11.695-8.735-15.497-14.966zM469.333 247.467c0 23.565 19.102 42.667 42.667 42.667h0.427c23.565 0 42.667-19.102 42.667-42.667s-19.102-42.667-42.667-42.667h-0.427c-23.565 0-42.667 19.102-42.667 42.667zM512 631.467c23.565 0 42.667-19.103 42.667-42.667v-170.667c0-23.565-19.102-42.667-42.667-42.667s-42.667 19.102-42.667 42.667v170.667c0 23.564 19.102 42.667 42.667 42.667z" />
<glyph unicode="&#xe904;" glyph-name="arrow-back" data-tags="arrow-back" d="M800 460.8c0-17.673-14.327-32-32-32h-512c-17.673 0-32 14.327-32 32s14.327 32 32 32h512c17.673 0 32-14.327 32-32zM449.293 654.094c12.497-12.497 12.497-32.758 0-45.255l-148.038-148.039 148.038-148.041c12.497-12.497 12.497-32.755 0-45.252s-32.757-12.497-45.254 0l-170.667 170.667c-12.497 12.497-12.497 32.755 0 45.252l170.667 170.668c12.497 12.497 32.756 12.497 45.254 0z" />
<glyph unicode="&#xe905;" glyph-name="arrow-downward" data-tags="arrow-downward" d="M512 748.8c17.673 0 32-14.327 32-32v-512c0-17.673-14.327-32-32-32s-32 14.327-32 32v512c0 17.673 14.327 32 32 32zM318.706 398.093c12.497 12.497 32.758 12.497 45.255 0l148.039-148.036 148.041 148.036c12.497 12.497 32.755 12.497 45.252 0s12.497-32.755 0-45.252l-170.667-170.667c-12.497-12.497-32.755-12.497-45.252 0l-170.668 170.667c-12.497 12.497-12.497 32.755 0 45.252z" />
<glyph unicode="&#xe906;" glyph-name="arrow-drop-down" data-tags="arrow-drop-down" d="M371.465 485.815l110.506-110.507c16.64-16.64 43.52-16.64 60.16 0l110.507 110.507c26.88 26.88 7.68 72.958-30.293 72.958h-221.013c-37.973 0-56.747-46.078-29.867-72.958z" />
<glyph unicode="&#xe907;" glyph-name="arrow-drop-up" data-tags="arrow-drop-up" d="M371.465 435.789l110.506 110.505c16.64 16.64 43.52 16.64 60.16 0l110.507-110.505c26.88-26.88 7.68-72.96-30.293-72.96h-221.013c-37.973 0-56.747 46.080-29.867 72.96z" />
<glyph unicode="&#xe908;" glyph-name="arrow-forward" data-tags="arrow-forward" d="M574.707 267.507c-12.497 12.497-12.497 32.755 0 45.252l148.036 148.041-148.036 148.039c-12.497 12.497-12.497 32.758 0 45.255s32.755 12.497 45.252 0l170.667-170.668c12.497-12.497 12.497-32.755 0-45.252l-170.667-170.667c-12.497-12.497-32.755-12.497-45.252 0zM224 460.8c0 17.673 14.327 32 32 32h512c17.673 0 32-14.327 32-32s-14.327-32-32-32h-512c-17.673 0-32 14.327-32 32z" />
<glyph unicode="&#xe909;" glyph-name="arrow-left" data-tags="arrow-left" d="M537.011 601.335l-110.505-110.506c-16.64-16.64-16.64-43.52 0-60.16l110.505-110.507c26.88-26.88 72.96-7.68 72.96 30.293v221.013c0 37.973-46.080 56.747-72.96 29.867z" />
<glyph unicode="&#xe90a;" glyph-name="arrow-right" data-tags="arrow-right" d="M486.985 320.354l110.507 110.507c16.64 16.64 16.64 43.52 0 60.16l-110.507 110.505c-26.88 26.453-72.958 7.68-72.958-30.293v-220.585c0-38.4 46.078-57.173 72.958-30.293z" />
<glyph unicode="&#xe90b;" glyph-name="arrow-upward" data-tags="arrow-upward" d="M512 172.8c-17.673 0-32 14.327-32 32v512c0 17.673 14.327 32 32 32s32-14.327 32-32v-512c0-17.673-14.327-32-32-32zM705.293 523.507c-12.497-12.497-32.755-12.497-45.252 0l-148.041 148.038-148.039-148.038c-12.497-12.497-32.758-12.497-45.255 0s-12.497 32.757 0 45.254l170.668 170.667c12.497 12.497 32.755 12.497 45.252 0l170.667-170.667c12.497-12.497 12.497-32.756 0-45.254z" />
<glyph unicode="&#xe90c;" glyph-name="bookmark" data-tags="bookmark" horiz-adv-x="1067" d="M747.025 76.826c-5.854 0-11.712 1.865-16.572 5.487l-204.39 152.226-204.391-152.226c-8.341-6.199-19.555-7.241-28.891-2.577-9.391 4.659-15.302 14.153-15.302 24.521v713.141c0 15.141 12.374 27.429 27.62 27.429h441.926c15.245 0 27.622-12.288 27.622-27.429v-713.141c0-10.368-5.914-19.861-15.249-24.521-3.921-1.92-8.175-2.91-12.373-2.91zM526.063 296.256c5.798 0 11.657-1.813 16.572-5.487l176.768-131.657v630.857h-386.683v-630.857l176.771 131.657c4.915 3.674 10.769 5.487 16.572 5.487z" />
<glyph unicode="&#xe90d;" glyph-name="bulk-actions" data-tags="bulk-actions" d="M255.829 855.467c-76.288 0-138.496-62.251-138.496-138.581v-512.213c0-76.288 62.208-138.539 138.496-138.539h511.744c76.245 0 138.453 62.251 138.453 138.539 0 0 0 512.213 0 512.213 0 76.331-62.208 138.581-138.453 138.581h-511.744zM255.829 786.133h511.744c38.656 0 69.163-30.549 69.163-69.248v-512.213c0-38.699-30.507-69.205-69.163-69.205 0 0-511.744 0-511.744 0-38.699 0-69.205 30.507-69.205 69.205v512.213c0 38.699 30.507 69.248 69.205 69.248zM416.171 358.955c14.251-0.299 26.837-9.387 31.744-22.869 4.864-13.44 0.939-28.501-9.643-37.76 0 0-93.824-85.717-93.824-85.717-13.312-12.245-33.877-12.117-47.104 0.299 0 0-43.861 41.429-43.861 41.429-6.699 6.315-10.624 15.061-10.88 24.363-0.213 9.173 3.2 18.091 9.557 24.832 6.357 6.656 15.104 10.539 24.235 10.752 9.259 0.256 18.176-3.2 24.832-9.515l20.224-19.243 69.845 63.829c5.717 5.461 13.056 8.789 20.821 9.472 1.365 0.128 2.688 0.171 4.053 0.128zM502.741 246.443c-18.731-0.341-34.347 14.293-35.243 33.067-0.939 18.773 13.44 34.901 32.384 36.267h2.816c0 0 243.285 0 243.029 0 9.344 0.213 18.389-3.328 25.045-9.856 6.656-6.571 10.411-15.488 10.411-24.789 0-9.344-3.797-18.304-10.411-24.747-6.656-6.571-15.659-10.155-24.747-9.941h-243.285zM416.256 358.955v0zM415.616 538.496c14.293-0.213 27.051-9.173 32.043-22.571 4.949-13.397 1.195-28.544-9.387-37.931 0 0-93.824-85.888-93.824-85.931-13.397-12.203-33.963-12.032-47.104 0.469 0 0-43.861 41.429-43.861 41.429-6.699 6.315-10.624 15.061-10.88 24.32-0.213 9.216 3.2 18.176 9.557 24.832 6.315 6.656 15.061 10.539 24.277 10.795 9.216 0.213 18.176-3.2 24.832-9.557l20.181-19.285 69.888 63.957c6.528 6.187 15.232 9.6 24.277 9.472zM502.997 495.445c-9.344 0.213-18.389-3.328-25.045-9.899-6.656-6.443-10.368-15.445-10.368-24.747 0-9.344 3.712-18.304 10.411-24.789 6.613-6.528 15.659-10.112 25.003-9.899-0.256 0 243.029 0 243.029 0 9.088-0.213 18.133 3.371 24.747 9.941 6.613 6.443 10.411 15.403 10.411 24.747 0 9.301-3.797 18.304-10.453 24.789-6.571 6.528-15.659 10.069-25.003 9.856 0.256 0-242.987 0-242.987 0h0.256zM415.659 538.496v0zM321.067 644.309l70.315 64.427c5.717 5.333 13.141 8.619 20.907 9.216 1.024 0.085 2.048 0.128 3.029 0.128h0.128c14.293-0.128 27.051-9.088 32.085-22.485 5.035-13.355 1.323-28.501-9.259-37.931 0 0-93.824-85.931-93.867-85.973-13.397-12.203-33.963-11.947-47.061 0.512 0 0-43.861 41.429-43.904 41.472-13.867 13.227-14.379 35.2-1.195 48.981 13.397 14.080 32.427 13.867 46.507 0.64l22.315-18.987zM502.955 675.072c-9.344 0.171-18.304-3.371-24.96-9.856-6.699-6.528-10.411-15.488-10.411-24.789 0-9.344 3.712-18.261 10.368-24.789 6.699-6.528 15.701-10.069 25.045-9.856-0.256 0 243.029 0 243.029 0 9.088-0.213 18.091 3.328 24.747 9.856s10.411 15.445 10.411 24.789c0 9.301-3.755 18.219-10.411 24.789-6.656 6.485-15.659 10.069-24.96 9.899 0.171 0-243.072-0.043-243.072-0.043h0.213z" />
<glyph unicode="&#xe90e;" glyph-name="calendar" data-tags="calendar" d="M770.697 770.565h-80.034v40.421c0 18.148-14.554 33.821-33.148 33.821-17.783 0-33.143-14.848-33.143-33.821v-40.421h-225.55v40.421c0 18.148-14.551 33.821-33.145 33.821s-33.146-14.848-33.146-33.821v-40.421h-79.225c-69.524 0-125.305-57.744-125.305-127.863v-438.031c0-70.946 56.59-127.863 125.305-127.863h517.391c69.521 0 125.303 57.745 125.303 127.863v438.031c0 70.118-56.589 127.863-125.303 127.863zM253.305 703.747h80.034v-40.421c0-18.148 14.551-33.821 33.145-33.821s33.145 14.848 33.145 33.821v40.421h226.359v-40.421c0-18.148 14.549-33.821 33.143-33.821 17.788 0 33.148 14.848 33.148 33.821v40.421h78.417c33.143 0 59.823-27.222 59.823-61.044v-78.367h-637.037v78.367c0 33.822 26.678 61.044 59.823 61.044zM770.697 143.625h-517.391c-33.145 0-59.823 27.226-59.823 61.047v292.019h637.037v-292.019c0-33.822-26.679-61.047-59.823-61.047z" />
<glyph unicode="&#xe90f;" glyph-name="call" data-tags="call" d="M122.667 775.857c0 40.991 33.285 74.276 74.276 74.276h137.826c40.929 0 74.276-33.282 74.276-74.276 0-44.514 7-88.139 20.702-129.656l0.026-0.074c8.465-26.977 1.527-55.675-18.122-75.46l-55.436-73.817c47.814-87.394 103.846-143.322 191.893-191.821l76.915 58.057c16.913 17.156 46.686 23.974 72.832 14.861 41.207-13.577 84.817-20.574 129.318-20.574 40.93 0 74.278-33.28 74.278-74.274v-137.472c-0.128-40.862-33.408-74.159-74.394-74.159-388.365 0-704.393 316.028-704.393 704.39zM196.943 780.39c-2.431 0-4.532-2.102-4.532-4.532 0-349.92 284.727-634.647 634.649-634.647 2.389 0 4.531 2.125 4.531 4.531v137.472c0 2.394-2.125 4.535-4.531 4.535-51.9 0-102.916 8.119-151.552 24.196-1.647 0.546-3.439 0.090-4.54-1.011l-0.26-0.26-98.355-74.598c-10.662-8.081-25.097-9.357-36.924-3.204-118.544 60.762-191.549 133.764-251.492 251.503-5.999 11.857-4.746 26.159 3.266 36.817l72.017 95.411c2.874 3.052 3.796 5.164 4.079 6.324 0.264 1.079 0.084 1.66 0.009 1.89-15.896 48.166-24.007 99.149-24.007 151.043 0 2.41-2.14 4.532-4.532 4.532h-137.826z" />
<glyph unicode="&#xe910;" glyph-name="cancel" data-tags="cancel" d="M512 34.133c-235.258 0-426.667 191.411-426.667 426.667 0 235.258 191.409 426.667 426.667 426.667 235.255 0 426.667-191.409 426.667-426.667 0-235.255-191.411-426.667-426.667-426.667zM512 821.826c-199.089 0-361.026-161.937-361.026-361.026 0-199.023 161.937-361.024 361.026-361.024 199.023 0 361.024 162.001 361.024 361.024 0 199.089-162.001 361.026-361.024 361.026zM342.011 630.787c15.133 15.133 39.645 15.123 54.777 0.007l115.212-115.209 115.2 115.203c15.134 15.133 39.646 15.123 54.78 0.007 15.142-15.126 15.13-39.666 0.004-54.79l-115.2-115.203 115.196-115.2c15.134-15.125 15.13-39.663 0.009-54.788-7.573-7.573-17.519-11.345-27.392-11.345-9.89 0-19.827 3.793-27.379 11.332l-115.217 115.217-115.206-115.204c-7.572-7.573-17.519-11.345-27.392-11.345-9.89 0-19.824 3.793-27.378 11.332-15.141 15.125-15.14 39.671-0.014 54.797l115.206 115.204-115.199 115.197c-15.134 15.126-15.13 39.666-0.006 54.79z" />
<glyph unicode="&#xe911;" glyph-name="chat" data-tags="chat" d="M112 220.8c-3.84 0-7.733 0.853-11.307 2.505-9.387 4.429-15.36 13.815-15.36 24.162v533.333c0 58.827 47.84 106.667 106.667 106.667h480c58.829 0 106.667-47.84 106.667-106.667v-320c0-58.829-47.838-106.667-106.667-106.667h-390.347l-152.587-127.147c-4.853-4.109-10.933-6.187-17.067-6.187zM192 834.133c-29.387 0-53.333-23.947-53.333-53.333v-476.429l116.267 96.853c4.8 4.053 10.827 6.242 17.067 6.242h400c29.44 0 53.333 23.893 53.333 53.333v320c0 29.387-23.893 53.333-53.333 53.333h-480zM272 674.133h320c14.72 0 26.667 11.947 26.667 26.667s-11.947 26.667-26.667 26.667h-320c-14.72 0-26.667-11.947-26.667-26.667s11.947-26.667 26.667-26.667zM272 567.467h213.333c14.72 0 26.667 11.947 26.667 26.667s-11.947 26.667-26.667 26.667h-213.333c-14.72 0-26.667-11.947-26.667-26.667s11.947-26.667 26.667-26.667zM895.36 39.863c4.8-3.84 10.718-5.815 16.64-5.815 3.891 0 7.842 0.909 11.571 2.667 9.229 4.429 15.095 13.76 15.095 24v506.669c0 58.827-47.842 106.667-106.667 106.667-14.72 0-26.667-11.947-26.667-26.667s11.947-26.667 26.667-26.667c29.44 0 53.333-23.947 53.333-53.333v-451.202l-90.027 72.055c-4.693 3.733-10.611 5.811-16.64 5.811h-373.333c-29.387 0-53.333 23.893-53.333 53.333v26.667c0 14.72-11.947 26.667-26.667 26.667s-26.667-11.947-26.667-26.667v-26.667c0-58.825 47.84-106.667 106.667-106.667h363.947l126.080-100.851z" />
<glyph unicode="&#xe912;" glyph-name="check-circle" data-tags="check-circle" d="M85.333 460.8c0-235.255 191.409-426.667 426.667-426.667 235.255 0 426.667 191.411 426.667 426.667 0 235.258-191.411 426.667-426.667 426.667-235.258 0-426.667-191.409-426.667-426.667zM150.974 460.8c0 199.089 161.937 361.026 361.026 361.026 199.023 0 361.024-161.937 361.024-361.026 0-199.023-162.001-361.024-361.024-361.024-199.089 0-361.026 162.001-361.026 361.024zM396.882 280.073c6.433-6.366 14.835-9.583 23.237-9.583 8.404 0 16.805 3.217 23.171 9.583l295.386 295.386c12.8 12.8 12.8 33.608 0 46.408s-33.609 12.8-46.409 0l-272.148-272.149-108.111 108.045c-12.8 12.8-33.608 12.8-46.408 0s-12.8-33.604 0-46.404l131.282-131.285z" />
<glyph unicode="&#xe913;" glyph-name="check" data-tags="check" d="M375.468 294.187l-149.333 149.333c-7.887 7.983-18.643 12.48-29.867 12.48s-21.979-4.497-29.867-12.48c-16.64-16.64-16.64-43.093 0-59.733l178.773-178.773c16.64-16.64 43.52-16.64 60.16 0l452.265 451.84c16.64 16.64 16.64 43.093 0 59.733-7.885 7.985-18.641 12.48-29.867 12.48-11.221 0-21.978-4.495-29.867-12.48l-422.398-422.4z" />
<glyph unicode="&#xe914;" glyph-name="checkbox-filled" data-tags="checkbox-filled" d="M298.667 844.8c-94.257 0-170.667-76.41-170.667-170.667v-426.667c0-94.255 76.41-170.667 170.667-170.667h426.667c94.255 0 170.667 76.412 170.667 170.667v426.667c0 94.257-76.412 170.667-170.667 170.667h-426.667zM432.034 278.417h-0.102c-9.192 0.026-18.379 3.546-25.416 10.453l-129.186 120.644c-14.15 14.148-14.146 37.137 0.004 51.285 14.1 14.101 36.973 14.148 51.134 0.149l103.14-95.151 251.059 265.681c14.148 14.15 37.133 14.149 51.285-0.001 14.131-14.131 14.148-37.074 0.051-51.229l-276.403-291.235c-7.1-7.1-16.371-10.573-25.566-10.598z" />
<glyph unicode="&#xe915;" glyph-name="checkbox-intermediate" data-tags="checkbox-intermediate" d="M128 674.133c0 94.257 76.41 170.667 170.667 170.667h426.667c94.255 0 170.667-76.41 170.667-170.667v-426.667c0-94.255-76.412-170.667-170.667-170.667h-426.667c-94.257 0-170.667 76.412-170.667 170.667v426.667zM330.667 492.8c-17.673 0-32-14.327-32-32s14.327-32 32-32h384c17.673 0 32 14.327 32 32s-14.327 32-32 32h-384z" />
<glyph unicode="&#xe916;" glyph-name="checkbox-outline" data-tags="checkbox-outline" d="M725.333 780.8c58.91 0 106.667-47.756 106.667-106.667v-426.667c0-58.91-47.757-106.667-106.667-106.667h-426.667c-58.91 0-106.667 47.757-106.667 106.667v426.667c0 58.91 47.756 106.667 106.667 106.667h426.667zM298.667 844.8c-94.257 0-170.667-76.41-170.667-170.667v-426.667c0-94.255 76.41-170.667 170.667-170.667h426.667c94.255 0 170.667 76.412 170.667 170.667v426.667c0 94.257-76.412 170.667-170.667 170.667h-426.667z" />
<glyph unicode="&#xe917;" glyph-name="chevron-down" data-tags="chevron-down" d="M318.706 568.761c12.497 12.497 32.758 12.497 45.255 0l148.039-148.038 148.041 148.038c12.497 12.497 32.755 12.497 45.252 0s12.497-32.756 0-45.254l-170.667-170.667c-12.497-12.497-32.755-12.497-45.252 0l-170.668 170.667c-12.497 12.497-12.497 32.757 0 45.254z" />
<glyph unicode="&#xe918;" glyph-name="chevron-left" data-tags="chevron-left" d="M619.959 654.094c12.497-12.497 12.497-32.758 0-45.255l-148.036-148.039 148.036-148.041c12.497-12.497 12.497-32.755 0-45.252s-32.755-12.497-45.252 0l-170.668 170.667c-12.497 12.497-12.497 32.755 0 45.252l170.668 170.668c12.497 12.497 32.755 12.497 45.252 0z" />
<glyph unicode="&#xe919;" glyph-name="chevron-right" data-tags="chevron-right" d="M404.039 267.507c-12.497 12.497-12.497 32.755 0 45.252l148.038 148.041-148.038 148.039c-12.497 12.497-12.497 32.758 0 45.255s32.756 12.497 45.254 0l170.667-170.668c12.497-12.497 12.497-32.755 0-45.252l-170.667-170.667c-12.497-12.497-32.757-12.497-45.254 0z" />
<glyph unicode="&#xe91a;" glyph-name="chevron-up" data-tags="chevron-up" d="M705.293 352.841c-12.497-12.497-32.755-12.497-45.252 0l-148.041 148.036-148.039-148.036c-12.497-12.497-32.758-12.497-45.255 0s-12.497 32.755 0 45.252l170.668 170.668c12.497 12.497 32.755 12.497 45.252 0l170.667-170.668c12.497-12.497 12.497-32.755 0-45.252z" />
<glyph unicode="&#xe91b;" glyph-name="close" data-tags="close" d="M265.201 213.999c6.141-6.127 14.176-9.199 22.212-9.199s16.072 3.059 22.212 9.199l202.375 202.377 202.377-202.377c6.144-6.127 14.178-9.199 22.212-9.199 8.038 0 16.073 3.059 22.212 9.199 12.271 12.267 12.271 32.166 0 44.425l-202.377 202.377 202.377 202.375c12.271 12.268 12.271 32.168 0 44.424-12.279 12.268-32.154 12.268-44.425 0l-202.377-202.379-202.375 202.379c-12.281 12.268-32.155 12.268-44.424 0s-12.268-32.168 0-44.424l202.379-202.375-202.379-202.377c-12.268-12.271-12.268-32.171 0-44.425zM265.201 213.999v0zM309.625 213.999v0zM512 416.375l3.772 3.772-3.772 3.772-3.772-3.772 3.772-3.772zM714.377 213.999l-3.767-3.772v-0.004l3.767 3.776zM758.801 213.999v0zM758.801 258.423l-3.772-3.772 0.004-0.004 3.767 3.776zM556.425 460.8l-3.772 3.772-3.772-3.772 3.772-3.772 3.772 3.772zM758.801 663.175v0zM758.801 707.599v0zM714.377 707.599v0zM512 505.22l-3.772-3.767 3.772-3.772 3.772 3.772-3.772 3.767zM309.625 707.599l3.771 3.771-0.002 0.002-3.77-3.773zM265.201 707.599v0zM265.201 663.175l3.771 3.771-0.002 0.002-3.77-3.773zM467.58 460.8l3.767-3.772 3.772 3.772-3.772 3.772-3.767-3.772zM265.201 258.423v0zM287.413 210.133c-6.676 0-13.341 2.547-18.444 7.642l-7.535-7.552c7.177-7.164 16.584-10.756 25.979-10.756v10.667zM305.854 217.771c-5.099-5.099-11.759-7.637-18.441-7.637v-10.667c9.39 0 18.801 3.58 25.983 10.761l-7.542 7.543zM508.228 420.147l-202.374-202.377 7.542-7.543 202.376 202.377-7.543 7.543zM718.148 217.771l-202.377 202.377-7.543-7.543 202.381-202.377 7.539 7.543zM736.589 210.133c-6.673 0-13.342 2.547-18.445 7.642l-7.535-7.552c7.181-7.164 16.585-10.756 25.98-10.756v10.667zM755.029 217.771c-5.099-5.099-11.759-7.637-18.441-7.637v-10.667c9.391 0 18.803 3.58 25.984 10.761l-7.543 7.543zM755.034 254.647c10.18-10.172 10.185-26.692-0.004-36.877l7.543-7.543c14.349 14.349 14.353 37.628 0 51.968l-7.539-7.548zM552.653 457.028l202.377-202.377 7.543 7.539-202.377 202.381-7.543-7.543zM755.029 666.946l-202.377-202.374 7.543-7.543 202.377 202.376-7.543 7.542zM755.034 703.825c10.18-10.171 10.185-26.693-0.004-36.879l7.543-7.542c14.349 14.35 14.353 37.628 0 51.968l-7.539-7.546zM718.148 703.828c10.185 10.185 26.684 10.187 36.885-0.002l7.539 7.546c-14.366 14.348-37.615 14.35-51.964-0.002l7.539-7.542zM515.772 501.453l202.377 202.375-7.539 7.542-202.381-202.378 7.543-7.539zM305.854 703.828l202.374-202.375 7.543 7.539-202.376 202.378-7.542-7.542zM268.972 703.828c10.185 10.185 26.684 10.187 36.883-0.002l7.539 7.546c-14.362 14.348-37.612 14.35-51.964-0.002l7.542-7.542zM268.971 666.948c-10.182 10.171-10.185 26.693 0.002 36.879l-7.542 7.542c-14.35-14.35-14.353-37.628 0.002-51.968l7.539 7.546zM471.347 464.572l-202.375 202.374-7.542-7.542 202.378-202.376 7.539 7.543zM268.972 254.652l202.375 202.377-7.539 7.543-202.378-202.381 7.542-7.539zM268.971 217.771c-10.182 10.172-10.185 26.692 0.002 36.881l-7.542 7.539c-14.35-14.349-14.353-37.628 0.002-51.968l7.539 7.548z" />
<glyph unicode="&#xe91c;" glyph-name="collapse-table" data-tags="collapse-table" d="M224 460.8c0 17.673 14.327 32 32 32h512c17.673 0 32-14.327 32-32s-14.327-32-32-32h-512c-17.673 0-32 14.327-32 32zM662.626 182.174c-12.497-12.497-32.755-12.497-45.252 0l-105.374 105.37-105.373-105.37c-12.497-12.497-32.758-12.497-45.255 0s-12.497 32.755 0 45.252l128.001 128c12.497 12.497 32.755 12.497 45.252 0l128-128c12.497-12.497 12.497-32.755 0-45.252zM512 876.8c17.673 0 32-14.327 32-32v-256c0-17.673-14.327-32-32-32s-32 14.327-32 32v256c0 17.673 14.327 32 32 32zM512 364.8c17.673 0 32-14.327 32-32v-256c0-17.673-14.327-32-32-32s-32 14.327-32 32v256c0 17.673 14.327 32 32 32zM361.373 739.427c12.497 12.497 32.758 12.497 45.255 0l105.373-105.373 105.374 105.373c12.497 12.497 32.755 12.497 45.252 0s12.497-32.758 0-45.255l-128-128c-12.497-12.497-32.755-12.497-45.252 0l-128.001 128c-12.497 12.497-12.497 32.758 0 45.255z" />
<glyph unicode="&#xe91d;" glyph-name="control-panel" data-tags="control-panel" horiz-adv-x="1067" d="M502.409 76.8h76.416c29.184 0 52.885 23.753 52.941 52.881l-0.661 64.841c11.631 3.951 22.985 8.67 32.038 14.925l47.177-47.181c20.57-20.57 54.089-20.57 74.769 0l54.037 54.037c20.57 20.57 20.57 54.089 0 74.769l-46.302 45.53c5.376 10.918 10.15 22.165 12.233 33.079h66.654c29.129 0 52.881 23.753 52.881 52.885v76.305c0.055 14.153-5.431 27.482-15.415 37.632-9.984 9.984-23.258 15.524-37.41 15.524l-64.845-0.713c-3.891 11.685-8.666 23.040-14.921 32.091l47.232 47.177c20.463 20.571 20.518 54.089-0.055 74.825l-53.978 53.979c-20.023 20.023-54.801 20.023-74.825 0l-45.534-46.299c-10.914 5.321-22.106 9.984-33.075 12.123v66.706c0 29.129-23.757 52.882-52.885 52.882h-76.416c-29.184 0-52.881-23.753-52.881-52.882l0.55-64.841c-11.631-4.005-22.767-8.668-32.038-14.921l-47.177 47.177c-20.517 20.516-54.089 20.571-74.825 0l-54.034-54.034c-20.571-20.571-20.571-54.144 0-74.825l46.3-45.531c-5.321-10.862-9.984-22.053-12.124-33.024h-66.706c-29.129 0-52.882-23.751-52.882-52.935v-76.416c0-29.184 23.753-52.885 52.882-52.885l64.896 0.495c4.004-11.575 8.667-22.711 14.866-31.872l-47.122-47.121c-10.039-10.039-15.525-23.317-15.525-37.47 0-14.097 5.486-27.371 15.47-37.41l54.034-54.089c20.571-20.463 54.089-20.518 74.825 0.051l45.532 46.246c10.918-5.376 22.054-10.095 33.023-12.177v-66.654c0-29.129 23.697-52.881 52.881-52.881zM440.917 257.609c-7.791 3.951-16.185 5.871-24.468 5.871-13.659 0-27.045-5.214-37.083-15.249l-44.434-47.181-54.034 51.294 47.122 47.121c15.963 15.91 19.858 40.593 9.6 61.385-4.334 8.777-8.119 17.886-11.301 27.046-7.406 21.888-27.538 36.642-50.139 36.642l-64.677-1.971-1.975 74.496h66.706c22.492 0 42.624 14.699 50.14 36.587 3.127 9.382 6.967 18.378 11.136 26.991 10.368 20.736 6.583 45.422-9.436 61.44l-47.177 44.434 51.291 54.034 47.177-47.177c15.963-15.963 40.539-19.748 61.274-9.545 8.832 4.334 17.83 8.119 27.209 11.301 21.888 7.46 36.591 27.593 36.591 50.139l-1.975 64.677 74.441 1.975v-66.706c0-22.491 14.703-42.679 36.591-50.084 9.327-3.182 18.377-6.967 26.935-11.246 20.847-10.423 45.53-6.528 61.495 9.49l44.433 47.177 54.033-51.237-47.232-47.177c-15.906-16.018-19.691-40.704-9.378-61.495 4.335-8.667 8.009-17.609 11.191-26.991 7.514-21.888 27.648-36.587 50.138-36.587h64.678l1.92-72.525h-66.654c-22.434 0-42.513-14.699-50.138-36.642-3.127-9.327-6.967-18.321-11.136-26.769-10.479-20.736-6.694-45.534 9.378-61.606l47.181-44.433-51.294-54.037-47.177 47.181c-16.073 16.128-40.759 19.802-61.495 9.434-8.61-4.335-17.609-8.064-26.935-11.191-21.833-7.458-36.587-27.593-36.587-50.138l1.971-64.678-74.441-1.975v66.654c0 22.434-14.647 42.569-36.642 50.138-9.382 3.127-18.325 7.023-26.825 11.136zM430.933 460.8c0-60.506 49.203-109.713 109.713-109.713 60.506 0 109.713 49.207 109.713 109.713s-49.207 109.714-109.713 109.714c-60.51 0-109.713-49.209-109.713-109.714zM485.79 460.8c0 30.225 24.631 54.857 54.857 54.857 30.281 0 54.857-24.631 54.857-54.857 0-30.281-24.576-54.857-54.857-54.857-30.225 0-54.857 24.576-54.857 54.857z" />
<glyph unicode="&#xe91e;" glyph-name="copy" data-tags="copy" d="M774.093 213.935c0-15.138 12.288-27.43 27.43-27.43 15.138 0 27.426 12.292 27.426 27.43v603.436c0 15.141-12.288 27.429-27.426 27.429h-493.721c-15.141 0-27.429-12.288-27.429-27.429s12.288-27.429 27.429-27.429h466.291v-576.007zM198.095 76.8h493.719c15.142 0 27.43 12.288 27.43 27.43v603.434c0 15.141-12.288 27.429-27.43 27.429h-493.719c-15.141 0-27.429-12.288-27.429-27.429v-603.434c0-15.142 12.288-27.43 27.429-27.43zM664.388 131.657h-438.864v548.579h438.864v-548.579z" />
<glyph unicode="&#xe91f;" glyph-name="delete" data-tags="delete" d="M808.503 652.995h-157.5v82.88c0 13.057-10.62 23.592-23.59 23.592h-209.319c-13.050 0-23.592-10.535-23.592-23.592v-82.88h-157.577c-12.972 0-23.592-10.535-23.592-23.592 0-12.973 10.612-23.592 23.592-23.592h58.27l37.427-460.548c1.017-12.262 11.241-21.7 23.507-21.7h333.164c12.343 0 22.566 9.438 23.514 21.705l37.427 460.551h58.27c13.052 0 23.595 10.612 23.595 23.592 0 13.050-10.539 23.585-23.595 23.585zM441.685 712.29h162.142v-59.287h-162.142v59.287zM667.597 170.739h-289.684l-35.384 435.079h360.375l-35.307-435.079zM580.237 262.49c-13.030 0-23.59 10.56-23.59 23.59v208.316c0 13.030 10.56 23.59 23.59 23.59s23.59-10.56 23.59-23.59v-208.307c0-13.039-10.56-23.599-23.59-23.599zM441.617 286.080c0-13.030 10.564-23.59 23.595-23.59s23.586 10.56 23.59 23.599v208.307c0 13.030-10.56 23.59-23.59 23.59s-23.595-10.56-23.595-23.59v-208.316z" />
<glyph unicode="&#xe920;" glyph-name="download" data-tags="download" d="M477.129 767.261c0 19.251 15.62 34.872 34.871 34.872s34.871-15.621 34.871-34.872v-400.025l91.106 72.866c15.121 11.789 36.941 9.562 48.977-5.483 11.981-15.044 9.63-36.954-5.44-49.024l-147.682-118.148c-4.301-3.452-9.207-5.73-14.276-6.852-1.306-0.286-2.641-0.503-3.998-0.64-1.182-0.119-2.372-0.183-3.558-0.183-7.654 0-15.403 2.505-21.769 7.616l-147.689 118.148c-14.986 12.058-17.44 33.958-5.449 49.015l0.034 0.043c12.111 14.895 33.919 17.348 48.98 5.427l91.020-72.794v400.034zM122.667 353.724c0 19.251 15.621 34.871 34.872 34.871s34.872-15.62 34.872-34.871v-201.438h639.18v201.438c0 19.251 15.62 34.871 34.871 34.871s34.871-15.62 34.871-34.871v-236.309c0-19.251-15.62-34.871-34.871-34.871h-708.923c-19.251 0-34.872 15.62-34.872 34.871v236.309z" />
<glyph unicode="&#xe921;" glyph-name="drag-indicator" data-tags="drag-indicator" d="M682.667 631.467c-47.049 0-85.333 38.286-85.333 85.333s38.285 85.333 85.333 85.333c47.049 0 85.333-38.286 85.333-85.333s-38.285-85.333-85.333-85.333zM682.667 745.245c-15.646 0-28.446-12.743-28.446-28.445s12.8-28.445 28.446-28.445c15.646 0 28.446 12.743 28.446 28.445s-12.8 28.445-28.446 28.445zM682.667 375.467c-47.049 0-85.333 38.285-85.333 85.333s38.285 85.333 85.333 85.333c47.049 0 85.333-38.285 85.333-85.333s-38.285-85.333-85.333-85.333zM682.667 489.246c-15.646 0-28.446-12.8-28.446-28.446s12.8-28.446 28.446-28.446c15.646 0 28.446 12.8 28.446 28.446s-12.8 28.446-28.446 28.446zM256 204.8c0-47.049 38.286-85.333 85.333-85.333s85.333 38.285 85.333 85.333c0 47.049-38.286 85.333-85.333 85.333s-85.333-38.285-85.333-85.333zM312.889 204.8c0 15.646 12.8 28.446 28.445 28.446s28.445-12.8 28.445-28.446c0-15.646-12.8-28.446-28.445-28.446s-28.445 12.8-28.445 28.446zM597.333 204.8c0-47.049 38.285-85.333 85.333-85.333s85.333 38.285 85.333 85.333c0 47.049-38.285 85.333-85.333 85.333s-85.333-38.285-85.333-85.333zM654.221 204.8c0 15.646 12.8 28.446 28.446 28.446s28.446-12.8 28.446-28.446c0-15.646-12.8-28.446-28.446-28.446s-28.446 12.8-28.446 28.446zM256 460.8c0-47.049 38.286-85.333 85.333-85.333s85.333 38.285 85.333 85.333c0 47.049-38.286 85.333-85.333 85.333s-85.333-38.285-85.333-85.333zM312.889 460.8c0 15.646 12.8 28.446 28.445 28.446s28.445-12.8 28.445-28.446c0-15.646-12.8-28.446-28.445-28.446s-28.445 12.8-28.445 28.446zM256 716.8c0-47.047 38.286-85.333 85.333-85.333s85.333 38.286 85.333 85.333c0 47.047-38.286 85.333-85.333 85.333s-85.333-38.286-85.333-85.333zM312.889 716.8c0 15.701 12.8 28.445 28.445 28.445s28.445-12.743 28.445-28.445c0-15.701-12.8-28.445-28.445-28.445s-28.445 12.743-28.445 28.445z" />
<glyph unicode="&#xe922;" glyph-name="edit" data-tags="edit" d="M336.209 60.591h-159.997c-17.664 0-32 14.336-32 32v159.996c0 8.512 3.392 16.64 9.344 22.656l543.987 543.989c12.48 12.48 32.768 12.48 45.248 0l159.996-159.997c12.48-12.48 12.48-32.767 0-45.247l-543.987-543.989c-5.952-6.016-14.080-9.408-22.592-9.408zM208.212 124.591h114.75l511.991 511.989-114.752 114.749-511.988-511.991v-114.748zM768.205 492.599c-8.192 0-16.384 3.136-22.656 9.34l-159.996 159.999c-12.48 12.48-12.48 32.767 0 45.247s32.768 12.48 45.248 0l159.996-159.997c12.48-12.481 12.48-32.769 0-45.249-6.208-6.204-14.4-9.34-22.592-9.34z" />
<glyph unicode="&#xe923;" glyph-name="expand-table" data-tags="expand-table" d="M224 76.8c0 17.673 14.327 32 32 32h512c17.673 0 32-14.327 32-32s-14.327-32-32-32h-512c-17.673 0-32 14.327-32 32zM224 844.8c0 17.673 14.327 32 32 32h512c17.673 0 32-14.327 32-32s-14.327-32-32-32h-512c-17.673 0-32 14.327-32 32zM662.626 566.173c-12.497-12.497-32.755-12.497-45.252 0l-105.374 105.373-105.373-105.373c-12.497-12.497-32.758-12.497-45.255 0s-12.497 32.758 0 45.255l128.001 128c12.497 12.497 32.755 12.497 45.252 0l128-128c12.497-12.497 12.497-32.758 0-45.255zM512 748.8c17.673 0 32-14.327 32-32v-512c0-17.673-14.327-32-32-32s-32 14.327-32 32v512c0 17.673 14.327 32 32 32zM361.373 355.426c12.497 12.497 32.758 12.497 45.255 0l105.373-105.37 105.374 105.37c12.497 12.497 32.755 12.497 45.252 0s12.497-32.755 0-45.252l-128-128c-12.497-12.497-32.755-12.497-45.252 0l-128.001 128c-12.497 12.497-12.497 32.755 0 45.252z" />
<glyph unicode="&#xe924;" glyph-name="filter" data-tags="filter" d="M793.109 624.902h73.353c16.303 0 29.538 13.233 29.538 29.539v118.154c0 16.305-13.235 29.539-29.538 29.539h-708.923c-16.305 0-29.539-13.233-29.539-29.539v-118.154c0-16.305 13.233-29.539 29.539-29.539h73.238l192.599-275.061v-227.034c0-11.166 6.321-21.385 16.305-26.406 4.194-2.069 8.742-3.132 13.235-3.132 6.259 0 12.523 2.010 17.724 5.909l118.153 88.614c7.441 5.555 11.814 14.357 11.814 23.633v138.415l192.503 275.061zM779.947 683.98c-1.425 0.103-2.854 0.102-4.275 0h-527.541c-1.356 0.093-2.719 0.094-4.081 0h-56.972v59.077h649.847v-59.077h-56.977zM302.954 624.902h418.134l-174.182-248.83c-3.546-4.962-5.376-10.871-5.376-16.956v-132.924l-59.076-44.309v177.233c0 6.084-1.89 11.994-5.316 16.956l-174.183 248.83z" />
<glyph unicode="&#xe925;" glyph-name="groupby" data-tags="groupby" d="M855.377 582.43c11.059 6.225 20.262 15.28 26.667 26.237 6.409 10.956 9.783 23.419 9.783 36.11s-3.375 25.154-9.783 36.11c-6.404 10.956-15.607 20.012-26.667 26.237l-289.25 165.577c-16.969 9.679-36.169 14.769-55.701 14.769-19.537 0-38.737-5.090-55.706-14.769l-290.269-165.577c-11.060-6.225-20.264-15.28-26.67-26.237s-9.781-23.419-9.781-36.11c0-12.691 3.376-25.154 9.781-36.11s15.61-20.011 26.67-26.237l53.148-29.64-52.126-29.641c-11.060-6.225-20.264-15.279-26.669-26.236s-9.781-23.42-9.781-36.109c0-12.693 3.376-25.156 9.781-36.113s15.61-20.011 26.669-26.236l52.126-29.641-52.126-29.641c-11.060-6.225-20.264-15.279-26.669-26.236s-9.781-23.42-9.781-36.109c0-12.693 3.376-25.156 9.781-36.113 6.405-10.953 15.61-20.011 26.669-26.236l288.227-165.577c16.969-9.677 36.164-14.767 55.701-14.767s38.733 5.090 55.706 14.767l290.27 165.577c11.059 6.225 20.262 15.283 26.667 26.236 6.409 10.957 9.783 23.42 9.783 36.113 0 12.689-3.375 25.152-9.783 36.109-6.404 10.957-15.607 20.011-26.667 26.236l-53.15 29.641 52.126 29.641c11.059 6.225 20.262 15.279 26.671 26.236 6.404 10.957 9.779 23.42 9.779 36.113 0 12.689-3.375 25.152-9.779 36.109-6.409 10.957-15.612 20.011-26.671 26.236l-52.126 29.641 52.126 29.64h1.024zM824.713 285.005c1.481-0.917 2.701-2.197 3.546-3.716 0.849-1.519 1.293-3.23 1.293-4.971s-0.444-3.452-1.293-4.971c-0.845-1.523-2.065-2.799-3.546-3.716l-289.246-164.557c-7.77-4.484-16.585-6.844-25.553-6.844-8.973 0-17.783 2.359-25.553 6.844l-289.248 164.557c-1.479 0.917-2.7 2.193-3.546 3.716-0.847 1.519-1.291 3.23-1.291 4.971s0.444 3.452 1.291 4.971c0.846 1.519 2.067 2.799 3.546 3.716l83.811 48.038 174.777-100.164c16.969-9.677 36.164-14.767 55.701-14.767s38.733 5.090 55.706 14.767l174.775 100.164 84.83-48.038zM824.713 468.979c1.481-0.917 2.701-2.197 3.546-3.716 0.849-1.519 1.293-3.23 1.293-4.971s-0.444-3.452-1.293-4.971c-0.845-1.523-2.065-2.803-3.546-3.716l-289.246-164.557c-7.77-4.484-16.585-6.844-25.553-6.844-8.973 0-17.783 2.359-25.553 6.844l-289.248 164.557c-1.479 0.913-2.7 2.193-3.546 3.716-0.847 1.519-1.291 3.23-1.291 4.971s0.444 3.452 1.291 4.971c0.846 1.519 2.067 2.799 3.546 3.716l83.811 48.038 174.777-100.164c16.969-9.681 36.164-14.771 55.701-14.771s38.733 5.090 55.706 14.771l174.775 100.164 84.83-48.038zM824.713 635.578l-289.246-164.555c-7.77-4.484-16.585-6.848-25.553-6.848-8.973 0-17.783 2.364-25.553 6.848l-289.248 164.555c-1.479 0.916-2.7 2.196-3.546 3.716s-1.291 3.232-1.291 4.972c0 1.74 0.444 3.451 1.291 4.972s2.067 2.799 3.546 3.716l289.248 165.577c7.77 4.486 16.58 6.847 25.553 6.847 8.969 0 17.783-2.361 25.553-6.847l289.246-164.554c1.481-0.917 2.701-2.196 3.546-3.716 0.849-1.52 1.293-3.232 1.293-4.972s-0.444-3.451-1.293-4.972c-0.845-1.521-2.065-2.799-3.546-3.716v-1.022z" />
<glyph unicode="&#xe926;" glyph-name="help" data-tags="help" d="M501.333 55.467c-229.376 0-416 186.624-416 416s186.624 416 416 416c229.376 0 416-186.624 416-416s-186.624-416-416-416zM501.333 823.467c-194.112 0-352-157.888-352-352 0-194.048 157.888-352 352-352 194.048 0 352 157.952 352 352 0 194.112-157.952 352-352 352zM533.325 247.467h-64v-64h64v64zM469.333 343.381c0-17.664 14.336-32 32-32s32 14.336 32 32v34.56c0 34.624 17.216 66.176 43.84 80.448 51.904 27.968 84.16 81.984 84.16 140.994 0 88.192-71.744 160-160 160-88.192 0-160-71.808-160-160 0-17.664 14.336-32 32-32s32 14.336 32 32c0 52.928 43.072 96 96 96s96-43.072 96-96c0-35.392-19.392-67.842-50.496-84.61-47.808-25.664-77.504-78.080-77.504-136.832v-34.56z" />
<glyph unicode="&#xe927;" glyph-name="home" data-tags="home" horiz-adv-x="1067" d="M524.51 874.801c-10.594 9.696-26.97 9.746-37.615 0l-429.668-393.833c-8.362-7.646-11.179-19.635-7.036-30.165 4.147-10.543 14.393-17.502 25.841-17.502h99.155c2.946 0 5.333-2.389 5.333-5.333v-360.998c0-15.138 12.384-27.503 27.718-27.503h132.207c15.334 0 27.718 12.365 27.718 27.503v229.747c0 2.948 2.388 5.333 5.333 5.333h66.102c2.948 0 5.333-2.385 5.333-5.333v-229.747c0-15.138 12.386-27.503 27.721-27.503h330.513c15.334 0 27.721 12.365 27.721 27.503v360.998c0 2.944 2.389 5.333 5.333 5.333h99.153c11.452 0 21.696 6.959 25.843 17.502 4.139 10.517 1.344 22.443-7.040 30.165l-429.666 393.833zM502.101 813.885c2.035 1.869 5.167 1.869 7.206 0l345.122-316.332c1.621-1.489 2.167-3.785 1.37-5.837-0.798-2.048-2.773-3.413-4.971-3.413h-47.663c-15.334 0-27.716-12.365-27.716-27.503v-360.998c0-2.944-2.389-5.333-5.333-5.333h-264.414c-2.944 0-5.333 2.389-5.333 5.333v229.751c0 15.134-12.382 27.413-27.716 27.413h-132.208c-15.334 0-27.718-12.279-27.718-27.413v-229.751c0-2.944-2.388-5.333-5.333-5.333h-66.103c-2.946 0-5.333 2.389-5.333 5.333v360.998c0 15.138-12.384 27.503-27.718 27.503h-47.66c-2.199 0-4.173 1.365-4.971 3.413-0.797 2.052-0.254 4.348 1.367 5.837l345.127 316.332z" />
<glyph unicode="&#xe928;" glyph-name="info-circle" data-tags="info-circle" d="M512 844.8c-212.077 0-384-171.923-384-384 0-212.079 171.923-384 384-384 212.079 0 384 171.921 384 384 0 212.077-171.921 384-384 384zM42.667 460.8c0 259.206 210.128 469.333 469.333 469.333 259.204 0 469.333-210.128 469.333-469.333 0-259.204-210.129-469.333-469.333-469.333-259.206 0-469.333 210.129-469.333 469.333zM512 503.467c23.565 0 42.667-19.102 42.667-42.667v-170.667c0-23.565-19.102-42.667-42.667-42.667s-42.667 19.102-42.667 42.667v170.667c0 23.565 19.102 42.667 42.667 42.667zM469.333 631.467c0 23.564 19.102 42.667 42.667 42.667h0.427c23.565 0 42.667-19.103 42.667-42.667s-19.102-42.667-42.667-42.667h-0.427c-23.565 0-42.667 19.103-42.667 42.667z" />
<glyph unicode="&#xe929;" glyph-name="log-out" data-tags="log-out" horiz-adv-x="1109" d="M642.325 79.706l218.048 109.026c9.754 4.207 16.589 13.909 16.589 25.203v603.436c0 15.141-12.288 27.429-27.43 27.429h-493.722c-15.141 0-27.429-12.288-27.429-27.429v-54.858c0-15.141 12.288-27.429 27.429-27.429s27.429 12.288 27.429 27.429v27.429h350.068l-115.503-57.754c-9.271-4.663-15.142-14.153-15.142-24.521v-466.379h-219.433v82.287c0 15.142-12.288 27.43-27.429 27.43s-27.429-12.288-27.429-27.43v-109.713c0-15.142 12.288-27.43 27.429-27.43h246.861v-82.202c0-9.493 4.937-18.325 13.001-23.373 4.39-2.688 9.382-4.058 14.43-4.058 4.169 0 8.393 0.986 12.233 2.906zM657.519 690.716l164.582 82.27v-542.035l-164.582-82.342v542.108zM300.966 405.978c-7.022 0-14.044 2.688-19.42 8.009l-116.667 121.493c-0.801 2.786-1.153 5.675-1.056 8.55 0.047 1.378 0.195 2.735 0.439 4.057 0.97 5.278 3.493 10.325 7.568 14.4l109.716 109.716c10.697 10.697 28.087 10.697 38.785 0s10.697-28.087 0-38.785l-62.899-62.899h262.952c15.142 0 27.43-12.288 27.43-27.428 0-15.142-12.288-27.43-27.43-27.43h-262.889l62.836-62.835c10.697-10.697 10.697-28.087 0-38.784-5.321-5.376-12.343-8.064-19.365-8.064z" />
<glyph unicode="&#xe92a;" glyph-name="more-hori" data-tags="more-horiz" d="M259.282 375.467c48.857 0 88.616 39.757 88.616 88.614s-39.759 88.617-88.616 88.617c-48.856 0-88.615-39.759-88.615-88.617s39.759-88.614 88.615-88.614zM259.282 434.543c-16.305 0-29.538 13.295-29.538 29.538 0 16.247 13.233 29.538 29.538 29.538s29.539-13.291 29.539-29.538c0-16.243-13.233-29.538-29.539-29.538zM610.479 464.081c0-48.858-39.757-88.614-88.614-88.614s-88.614 39.757-88.614 88.614c0 48.858 39.757 88.617 88.614 88.617s88.614-39.759 88.614-88.617zM492.326 464.081c0-16.243 13.295-29.538 29.538-29.538 16.247 0 29.538 13.295 29.538 29.538 0 16.247-13.291 29.538-29.538 29.538-16.243 0-29.538-13.291-29.538-29.538zM873.062 464.081c0-48.858-39.757-88.614-88.614-88.614s-88.614 39.757-88.614 88.614c0 48.858 39.757 88.617 88.614 88.617s88.614-39.759 88.614-88.617zM754.91 464.081c0-16.243 13.291-29.538 29.538-29.538s29.538 13.295 29.538 29.538c0 16.247-13.291 29.538-29.538 29.538s-29.538-13.291-29.538-29.538z" />
<glyph unicode="&#xe92b;" glyph-name="more-vert" data-tags="more-vert" d="M426.667 713.518c0-48.857 39.757-88.616 88.614-88.616s88.614 39.759 88.614 88.616c0 48.856-39.757 88.615-88.614 88.615s-88.614-39.759-88.614-88.615zM485.743 713.518c0 16.305 13.295 29.538 29.538 29.538 16.247 0 29.538-13.233 29.538-29.538s-13.291-29.539-29.538-29.539c-16.243 0-29.538 13.233-29.538 29.539zM515.281 362.338c-48.858 0-88.614 39.761-88.614 88.619 0 48.853 39.757 88.614 88.614 88.614s88.614-39.761 88.614-88.614c0-48.858-39.757-88.619-88.614-88.619zM515.281 480.495c-16.243 0-29.538-13.295-29.538-29.538 0-16.247 13.295-29.538 29.538-29.538 16.247 0 29.538 13.291 29.538 29.538 0 16.243-13.291 29.538-29.538 29.538zM515.281 99.776c-48.858 0-88.614 39.761-88.614 88.619 0 48.853 39.757 88.614 88.614 88.614s88.614-39.761 88.614-88.614c0-48.858-39.757-88.619-88.614-88.619zM515.281 217.933c-16.243 0-29.538-13.295-29.538-29.538 0-16.247 13.295-29.538 29.538-29.538 16.247 0 29.538 13.291 29.538 29.538 0 16.243-13.291 29.538-29.538 29.538z" />
<glyph unicode="&#xe92c;" glyph-name="my-tasks" data-tags="my-tasks" d="M160 652.8h128c17.664 0 32 14.336 32 32v128c0 17.664-14.336 32-32 32h-128c-17.664 0-32-14.336-32-32v-128c0-17.664 14.336-32 32-32zM256 716.8h-64v64h64v-64zM864 716.8h-448c-17.664 0-32 14.336-32 32s14.336 32 32 32h448c17.664 0 32-14.336 32-32s-14.336-32-32-32zM160 354.133h128c17.664 0 32 14.336 32 32v128c0 17.664-14.336 32-32 32h-128c-17.664 0-32-14.336-32-32v-128c0-17.664 14.336-32 32-32zM256 418.133h-64v64h64v-64zM864 418.133h-448c-17.664 0-32 14.336-32 32s14.336 32 32 32h448c17.664 0 32-14.336 32-32s-14.336-32-32-32zM160 55.467h128c17.664 0 32 14.336 32 32v128c0 17.664-14.336 32-32 32h-128c-17.664 0-32-14.336-32-32v-128c0-17.664 14.336-32 32-32zM256 119.467h-64v64h64v-64zM416 140.8h448c17.664 0 32 14.336 32 32s-14.336 32-32 32h-448c-17.664 0-32-14.336-32-32s14.336-32 32-32z" />
<glyph unicode="&#xe92d;" glyph-name="notifications" data-tags="notifications" d="M543.979 800.145v33.989c0 17.664-14.4 32-32 32-17.664 0-32-14.336-32-32v-33.989c10.487 1.313 21.167 1.989 32 1.989 10.837 0 21.517-0.676 32-1.989zM453.38 728.988c-77.293-24.834-133.4-97.425-133.4-182.855v-192c0-50.048-23.936-97.92-64-128h511.998c-40.064 30.080-64 77.952-64 128v192c0 85.428-56.102 158.019-133.397 182.854-2.59 0.441-5.073 1.193-7.415 2.218-16.303 4.515-33.468 6.929-51.187 6.929s-34.889-2.414-51.191-6.931c-2.338-1.023-4.817-1.774-7.407-2.214zM415.979 783.464v50.669c0 52.928 43.072 96 96 96s96-43.072 96-96v-50.668c93.743-38.044 160-130.080 160-237.332v-192c0-30.080 14.4-58.752 38.4-76.736l76.8-57.6c11.072-8.32 15.488-22.656 11.2-35.776-4.416-13.056-16.64-21.888-30.4-21.888l-224-0.081c0-70.592-57.408-128-128-128s-128 57.408-128 128v0.081h-223.999c-13.76 0-25.984 8.832-30.336 21.888s0.128 27.456 11.136 35.712l76.8 57.6c24.064 18.048 38.4 46.72 38.4 76.8v192c0 107.251 66.257 199.286 159.999 237.331zM447.979 162.052c0-35.328 28.736-64 64-64 35.328 0 64 28.672 64 64h-128z" />
<glyph unicode="&#xe92e;" glyph-name="overview" data-tags="overview" d="M455.147 882.133c-10.765 0-20.672-5.679-26.116-14.993l-248.886-426.662c-5.449-9.327-5.555-20.932-0.137-30.263 5.457-9.395 15.444-15.194 26.25-15.194h160.853c1.77 0 3.424-0.875 4.416-2.342 0.992-1.463 1.193-3.328 0.535-4.971l-122.738-306.773c-5.196-12.988-0.791-27.806 10.589-35.917 5.244-3.738 11.334-5.551 17.455-5.551 7.119 0 14.188 2.53 19.887 7.501l568.886 497.775c9.523 8.259 12.821 21.556 8.401 33.37-4.407 11.773-15.71 19.576-28.284 19.576h-206.080c-2.095 0-3.994 1.224-4.86 3.13-0.862 1.905-0.533 4.14 0.845 5.716l197.261 225.493c7.851 8.937 9.677 21.633 4.779 32.395-4.898 10.76-15.659 17.711-27.503 17.711h-355.554zM470.946 819.043c0.956 1.639 2.714 2.646 4.608 2.646h256.785c2.091 0 3.989-1.224 4.855-3.129s0.533-4.14-0.845-5.716l-197.252-225.486c-7.821-8.972-9.737-21.599-4.791-32.39 4.898-10.759 15.667-17.722 27.507-17.722h189.794c2.223 0 4.211-1.378 4.992-3.46 0.785-2.078 0.192-4.425-1.481-5.888l-386.274-337.993c-1.856-1.621-4.582-1.762-6.595-0.337s-2.785 4.045-1.869 6.332l87.252 218.099c3.742 9.293 2.611 19.814-3.025 28.177-5.619 8.337-14.98 13.291-25.017 13.291h-151.396c-1.909 0-3.673 1.020-4.625 2.675s-0.944 3.695 0.017 5.346l207.358 355.555z" />
<glyph unicode="&#xe92f;" glyph-name="pin-off" data-tags="pin-off" d="M887.364 588.459l-247.684 247.682c-5.884 5.888-14.054 9.011-22.281 8.628-8.316-0.391-16.073-4.254-21.385-10.661-2.816-3.386-65.25-79.895-58.121-171.165l-100.288-100.29c-34.741 16.422-70.026 24.215-105.711 23.288-96.070-2.638-156.871-69.319-159.424-72.152-10.474-11.699-9.981-29.534 1.114-40.636l154.472-154.47-191.398-191.411c-11.546-11.546-11.546-30.272 0-41.809 5.777-5.777 13.341-8.661 20.905-8.661 7.572 0 15.136 2.884 20.905 8.661l191.398 191.407 152.107-152.107c5.751-5.751 13.325-8.661 20.915-8.661 6.891 0 13.798 2.398 19.379 7.241 2.884 2.509 70.682 62.443 74.044 158.029 1.31 37.402-7.36 74.551-25.69 111.181l95.040 95.040c94.929-11.955 176.068 54.208 179.665 57.186 6.409 5.309 10.287 13.068 10.671 21.39 0.384 8.313-2.748 16.404-8.636 22.292zM541.722 188.625l-150.93 150.942c-0.009 0.009-0.009 0.009-0.009 0.017-0.009 0.009-0.009 0.009-0.017 0.009l-152.932 152.934c20.378 14.801 54.156 33.361 96.401 34.321 53.714 1.173 108.721-25.83 163.296-80.414 54.502-54.498 81.323-109.094 79.697-162.283-1.276-42.057-20.429-75.511-35.507-95.526zM701.973 548.179c-9.843 2.195-20.156-0.817-27.311-7.955l-93.653-93.645-87.927 87.927 96.785 96.784c6.746 6.747 9.818 16.336 8.26 25.746-7.189 43.325 10.355 85.408 25.254 111.785l196.732-196.742c-27.516-15.613-72.273-34.079-118.14-23.901z" />
<glyph unicode="&#xe930;" glyph-name="pinned" data-tags="pinned" d="M662.965 789.13h-323.331c-7.686 0-15.056-3.293-20.176-8.914-5.17-5.682-7.714-13.268-6.997-20.915 0.372-4.048 9.557-94.739 73.785-149.659v-130.923c-33.394-11.953-61.512-29.901-84.198-53.795-60.984-64.429-57.147-147.637-56.964-151.154 0.8-14.47 12.762-25.789 27.252-25.797h201.651l0.008-249.86c0-15.072 12.221-27.297 27.29-27.294 7.542 0 14.36 3.056 19.298 7.995 4.943 4.943 7.999 11.76 7.991 19.298l-0.004 249.86h198.561c7.511 0 14.352 3.044 19.306 7.999 4.498 4.498 7.44 10.575 7.924 17.376 0.244 3.521 5.376 86.89-54.819 151.473-23.56 25.269-53.465 43.859-89.336 55.804v124.068c69.766 54.159 79.541 150.303 79.947 154.596 0.713 7.647-1.82 15.245-6.999 20.926-5.175 5.676-12.501 8.914-20.189 8.914zM698.336 302.549l-197.037 0.008c-0.012 0-0.012 0-0.016 0.004-0.012 0-0.012 0-0.016-0.004h-199.643c3.638 22.965 13.573 57.123 40.519 85.323 34.294 35.828 87.826 54.107 159.072 54.099 71.148 0.008 124.29-18.125 157.944-53.902 26.62-28.286 35.954-62.622 39.176-85.528zM568.249 641.831c-7.857-4.992-12.623-13.69-12.635-23.020l-0.008-122.251h-114.779v126.343c0 8.808-4.257 17.072-11.414 22.198-32.973 23.586-48.989 62.506-56.481 89.446l256.827-0.006c-7.771-28.151-24.93-69.415-61.511-92.712z" />
<glyph unicode="&#xe931;" glyph-name="radio-checked" data-tags="radio-checked" d="M512 876.8c-229.641 0-416-186.359-416-416s186.359-416 416-416c229.641 0 416 186.359 416 416s-186.359 416-416 416zM160 460.8c0 194.295 157.705 352 352 352s352-157.705 352-352c0-194.295-157.705-352-352-352s-352 157.705-352 352zM341.333 460.8c0 94.257 76.41 170.667 170.667 170.667 94.255 0 170.667-76.41 170.667-170.667 0-94.255-76.412-170.667-170.667-170.667-94.257 0-170.667 76.412-170.667 170.667z" />
<glyph unicode="&#xe932;" glyph-name="radio-unchecked" data-tags="radio-unchecked" d="M96 460.8c0 229.641 186.359 416 416 416s416-186.359 416-416c0-229.641-186.359-416-416-416s-416 186.359-416 416zM512 812.8c-194.295 0-352-157.705-352-352s157.705-352 352-352c194.295 0 352 157.705 352 352s-157.705 352-352 352z" />
<glyph unicode="&#xe933;" glyph-name="remove-circle-outline" data-tags="remove-circle_outline" d="M128 460.8c0-211.733 172.268-384 384-384s384 172.267 384 384c0 211.732-172.267 384-384 384s-384-172.268-384-384zM187.077 460.8c0 179.18 145.743 324.923 324.923 324.923 179.123 0 324.924-145.743 324.924-324.923 0-179.123-145.801-324.924-324.924-324.924-179.18 0-324.923 145.801-324.923 324.924zM341.333 492.8c-17.673 0-32-14.327-32-32s14.327-32 32-32h341.333c17.673 0 32 14.327 32 32s-14.327 32-32 32h-341.333z" />
<glyph unicode="&#xe934;" glyph-name="remove" data-tags="remove" d="M768 418.133h-512c-23.467 0-42.667 19.2-42.667 42.667s19.2 42.667 42.667 42.667h512c23.467 0 42.667-19.2 42.667-42.667s-19.2-42.667-42.667-42.667z" />
<glyph unicode="&#xe935;" glyph-name="reports" data-tags="reports" horiz-adv-x="1067" d="M213.333 792.652v-663.705c0-28.791 23.354-52.147 52.148-52.147h474.073c28.796 0 52.151 23.356 52.151 52.147v497.779c0 7.544-2.999 14.779-8.333 20.113l-189.632 189.63c-4.757 4.757-11.025 7.656-17.677 8.227-0.806 0.069-1.617 0.104-2.436 0.104h-308.146c-28.794 0-52.148-23.354-52.148-52.148zM270.222 787.911h274.943v-137.482c0-28.794 23.356-52.148 52.151-52.148h137.498v-464.594h-464.592v654.224zM602.057 747.703l92.531-92.532h-92.531v92.532zM412.472 342.281v-142.221c0-15.71-12.735-28.446-28.445-28.446s-28.445 12.736-28.445 28.446v142.221c0 15.71 12.735 28.446 28.445 28.446s28.445-12.736 28.445-28.446zM502.528 465.54c-15.71 0-28.446-12.736-28.446-28.446v-237.035c0-15.71 12.736-28.446 28.446-28.446s28.446 12.736 28.446 28.446v237.035c0 15.71-12.736 28.446-28.446 28.446zM649.472 531.913v-331.853c0-15.71-12.736-28.446-28.446-28.446s-28.442 12.736-28.442 28.446v331.853c0 15.709 12.732 28.443 28.442 28.443s28.446-12.735 28.446-28.443z" />
<glyph unicode="&#xe936;" glyph-name="search" data-tags="search" d="M128 543.104c0-166.315 135.324-301.692 301.696-301.692 73.28 0 140.557 26.283 192.892 69.914l226.513-226.517c5.376-5.321 12.399-8.009 19.422-8.009 7.019 0 14.042 2.688 19.362 8.009 10.697 10.697 10.697 28.083 0 38.78l-226.509 226.509c43.691 52.352 70.012 119.671 70.012 193.007 0 166.372-135.377 301.696-301.692 301.696-166.372 0-301.696-135.324-301.696-301.696zM182.854 543.104c0 136.093 110.749 246.842 246.842 246.842 136.090 0 246.839-110.749 246.839-246.842 0-136.090-110.75-246.839-246.839-246.839-136.093 0-246.842 110.75-246.842 246.839zM622.588 311.326l3.772 3.772-3.447 3.443-3.742-3.119 3.418-4.096zM849.101 84.809l-3.767-3.772 0.017-0.017 3.75 3.789zM887.885 123.588v0zM661.376 350.097l-4.092 3.418-3.123-3.742 3.443-3.447 3.772 3.772zM429.696 246.746c-163.426 0-296.363 132.988-296.363 296.358h-10.667c0-169.259 137.711-307.025 307.029-307.025v10.667zM619.17 315.422c-51.413-42.867-117.491-68.676-189.474-68.676v-10.667c74.577 0 143.053 26.752 196.305 71.151l-6.831 8.192zM852.873 88.58l-226.513 226.517-7.543-7.543 226.517-226.517 7.539 7.543zM868.523 82.133c-5.662 0-11.324 2.163-15.667 6.464l-7.505-7.578c6.404-6.34 14.788-9.553 23.172-9.553v10.667zM884.113 88.58c-4.279-4.279-9.929-6.447-15.59-6.447v-10.667c8.375 0 16.772 3.209 23.134 9.57l-7.543 7.543zM884.113 119.821c8.614-8.614 8.614-22.626 0-31.241l7.543-7.543c12.779 12.779 12.779 33.545 0 46.323l-7.543-7.539zM657.604 346.325l226.509-226.505 7.543 7.539-226.509 226.509-7.543-7.543zM726.054 543.104c0-72.034-25.852-138.159-68.77-189.589l8.188-6.835c44.459 53.269 71.249 121.792 71.249 196.425h-10.667zM429.696 839.467c163.371 0 296.358-132.937 296.358-296.363h10.667c0 169.318-137.766 307.029-307.025 307.029v-10.667zM133.333 543.104c0 163.427 132.936 296.363 296.363 296.363v10.667c-169.318 0-307.029-137.711-307.029-307.029h10.667zM429.696 795.28c-139.039 0-252.176-113.137-252.176-252.176h10.667c0 133.148 108.361 241.509 241.509 241.509v10.667zM681.869 543.104c0 139.039-113.139 252.176-252.173 252.176v-10.667c133.146 0 241.506-108.361 241.506-241.509h10.667zM429.696 290.931c139.034 0 252.173 113.139 252.173 252.173h-10.667c0-133.146-108.361-241.506-241.506-241.506v-10.667zM177.52 543.104c0-139.034 113.137-252.173 252.176-252.173v10.667c-133.148 0-241.509 108.361-241.509 241.506h-10.667z" />
<glyph unicode="&#xe937;" glyph-name="serra" data-tags="sera-bot outline" d="M536.7 698.511l220.51-0.002c69.922 0 125.888-55.965 126.938-125.882v-362.48c0-69.918-57.015-125.841-125.841-125.841h-382.949l-116.137-112.9c-15.042-15.083-34.412-22.605-53.782-22.605-9.707 0-20.463 2.185-30.127 6.473-29.033 12.898-47.311 39.787-47.311 72.060v545.339c0 69.914 57.015 125.839 125.84 125.839h220.507v81.766c-39.791 13.992-67.774 50.547-67.774 93.572 0 54.832 44.077 98.951 98.951 98.951 54.831 0 98.953-44.076 98.953-98.951 0-44.076-29.035-80.673-67.776-93.572v-81.766zM542.084 872.761c0 20.42-17.186 36.555-36.557 36.555s-36.557-15.043-36.557-35.505c0-20.42 17.186-36.555 36.557-36.555s36.557 15.043 36.557 35.505zM758.306 147.75c34.411 0 62.396 27.985 62.396 62.396l-1.101 0.004v362.482c0 34.412-27.985 62.396-62.4 62.396h-504.454c-34.412 0-62.396-27.984-62.396-62.396l0.042-545.339c0-9.707 6.429-12.902 9.664-13.995 2.142-1.050 9.664-3.234 16.134 3.234l124.753 122.603c5.378 5.38 12.899 8.614 21.513 8.614h395.848zM405.481 365.065h200.091c8.614 0 16.137-7.565 16.137-16.137 0-64.542-51.639-116.181-116.181-116.181s-116.18 51.644-116.18 116.181c0 8.614 7.521 16.137 16.134 16.137zM679.77 483.383c0-77.478-116.177-77.478-116.177 0 0 77.438 116.177 77.438 116.177 0zM447.467 483.383c0-77.478-116.182-77.478-116.182 0 0 77.438 116.182 77.438 116.182 0z" />
<glyph unicode="&#xe938;" glyph-name="unfold-less" data-tags="unfold-less" d="M705.293 139.507c-12.497-12.497-32.755-12.497-45.252 0l-148.041 148.036-148.039-148.036c-12.497-12.497-32.758-12.497-45.255 0s-12.497 32.755 0 45.252l170.668 170.667c12.497 12.497 32.755 12.497 45.252 0l170.667-170.667c12.497-12.497 12.497-32.755 0-45.252zM318.706 782.094c12.497 12.497 32.758 12.497 45.255 0l148.039-148.039 148.041 148.039c12.497 12.497 32.755 12.497 45.252 0s12.497-32.758 0-45.255l-170.667-170.667c-12.497-12.497-32.755-12.497-45.252 0l-170.668 170.667c-12.497 12.497-12.497 32.758 0 45.255z" />
<glyph unicode="&#xe939;" glyph-name="unfold-more" data-tags="unfold-more" d="M318.706 355.426c12.497 12.497 32.758 12.497 45.255 0l148.039-148.036 148.041 148.036c12.497 12.497 32.755 12.497 45.252 0s12.497-32.755 0-45.252l-170.667-170.667c-12.497-12.497-32.755-12.497-45.252 0l-170.668 170.667c-12.497 12.497-12.497 32.755 0 45.252zM705.293 566.173c-12.497-12.497-32.755-12.497-45.252 0l-148.041 148.039-148.039-148.039c-12.497-12.497-32.758-12.497-45.255 0s-12.497 32.758 0 45.255l170.668 170.667c12.497 12.497 32.755 12.497 45.252 0l170.667-170.667c12.497-12.497 12.497-32.758 0-45.255z" />
<glyph unicode="&#xe93a;" glyph-name="view-columns" data-tags="view-columns" d="M770.697 770.558c-140.663 0-203.149 0-371.875 0-36.154 0.015-62.636-0.016-66.291 0h-79.225c-69.524 0-125.305-57.744-125.305-127.863v-438.032c0-70.942 56.59-127.863 125.305-127.863h517.391c69.521 0 125.303 57.745 125.303 127.863v438.032c0 70.118-56.589 127.863-125.303 127.863zM253.305 703.74h80.034v-586.244c0 0 14.551 0 33.145 0s33.145 0 33.145 0v586.244h226.359v-586.244c0 0 14.549 0 33.143 0 17.788 0 33.148 0 33.148 0v586.244h78.417c33.143 0 59.823-27.222 59.823-61.044v-78.367h-637.037v78.367c0 33.822 26.678 61.044 59.823 61.044zM770.697 143.62h-517.391c-33.145 0-59.823 27.221-59.823 61.043v292.023h637.037v-292.023c0-33.822-26.679-61.043-59.823-61.043z" />
<glyph unicode="&#xe93b;" glyph-name="view-off" data-tags="view-off" d="M501.346 172.843c-167.84 0-317.28 103.573-371.786 257.758-2.080 5.76-2.080 12.053 0 17.762 54.507 154.239 203.947 257.812 371.786 257.812 167.842 0 317.282-103.573 371.84-257.761 2.027-5.705 2.027-11.998 0-17.758-54.558-154.24-203.998-257.813-371.84-257.813zM183.107 439.509c49.547-128 176.16-213.333 318.24-213.333 142.029 0 268.693 85.333 318.242 213.333-49.549 127.999-176.213 213.332-318.242 213.332-142.026 0-268.693-85.333-318.24-213.332zM501.346 279.509c-88.213 0-160 71.787-160 160s71.786 159.999 160 159.999c88.213 0 160-71.786 160-159.999s-71.787-160-160-160zM501.346 546.175c-58.825 0-106.666-47.841-106.666-106.666 0-58.829 47.842-106.667 106.666-106.667 58.829 0 106.667 47.838 106.667 106.667 0 58.825-47.838 106.666-106.667 106.666zM794.679 119.505c-6.827 0-13.653 2.615-18.88 7.787l-586.666 586.668c-10.4 10.4-10.4 27.307 0 37.707s27.307 10.4 37.707 0l586.668-586.666c10.398-10.402 10.398-27.307 0-37.709-5.175-5.171-12.002-7.787-18.829-7.787z" />
<glyph unicode="&#xe93c;" glyph-name="view" data-tags="view" d="M87.116 444.544c62.29-176.205 233.070-294.566 424.876-294.566 191.808 0 362.586 118.362 424.939 294.626 2.317 6.583 2.317 13.773 0 20.297-62.353 176.203-233.131 294.566-424.939 294.566-191.806 0-362.585-118.363-424.876-294.626-2.377-6.524-2.377-13.717 0-20.297zM511.991 210.923c-162.368 0-307.061 97.519-363.683 243.797 56.622 146.279 201.376 243.798 363.683 243.798s307.063-97.519 363.682-243.798c-56.619-146.278-201.374-243.797-363.682-243.797zM329.143 454.72c0-100.809 82.037-182.848 182.848-182.848 100.809 0 182.848 82.039 182.848 182.848 0 100.811-82.039 182.848-182.848 182.848-100.811 0-182.848-82.037-182.848-182.848zM390.092 454.72c0 67.23 54.673 121.9 121.899 121.9s121.899-54.67 121.899-121.9c0-67.226-54.673-121.899-121.899-121.899s-121.899 54.673-121.899 121.899z" />
<glyph unicode="&#xe93d;" glyph-name="worklist" data-tags="worklist" horiz-adv-x="1067" d="M172.495 823.467c0 38.292 31.041 69.333 69.333 69.333h554.665c38.293 0 69.333-31.042 69.333-69.333v-725.333c0-38.293-31.040-69.333-69.333-69.333h-554.665c-38.292 0-69.333 31.040-69.333 69.333v725.333zM241.828 839.467c-8.837 0-16-7.163-16-16v-725.333c0-8.836 7.163-16 16-16h554.665c8.841 0 16 7.164 16 16v725.333c0 8.837-7.159 16-16 16h-554.665zM300.495 716.8c0 26.51 21.49 48 48 48s48-21.49 48-48c0-26.51-21.49-48-48-48s-48 21.49-48 48zM428.493 716.8c0 14.728 11.942 26.667 26.667 26.667h256c14.729 0 26.667-11.939 26.667-26.667s-11.938-26.667-26.667-26.667h-256c-14.724 0-26.667 11.939-26.667 26.667zM300.495 546.133c0 26.51 21.49 48 48 48s48-21.49 48-48c0-26.509-21.49-48-48-48s-48 21.491-48 48zM428.493 546.133c0 14.728 11.942 26.667 26.667 26.667h256c14.729 0 26.667-11.939 26.667-26.667s-11.938-26.667-26.667-26.667h-256c-14.724 0-26.667 11.938-26.667 26.667zM300.495 375.467c0 26.509 21.49 48 48 48s48-21.491 48-48c0-26.509-21.49-48-48-48s-48 21.491-48 48zM428.493 375.467c0 14.729 11.942 26.667 26.667 26.667h256c14.729 0 26.667-11.938 26.667-26.667s-11.938-26.667-26.667-26.667h-256c-14.724 0-26.667 11.938-26.667 26.667zM300.495 204.8c0 26.509 21.49 48 48 48s48-21.491 48-48c0-26.509-21.49-48-48-48s-48 21.491-48 48zM428.493 204.8c0 14.729 11.942 26.667 26.667 26.667h256c14.729 0 26.667-11.938 26.667-26.667s-11.938-26.667-26.667-26.667h-256c-14.724 0-26.667 11.938-26.667 26.667z" />
<glyph unicode="&#xe93e;" glyph-name="alert-triangle-fill" data-tags="alert-triangle-fill" d="M457.131 830.421c15.793 9.062 34.72 14.407 54.895 14.407 40.316 0 75.648-21.343 95.312-53.346l0.278-0.486 0.085-0.213 315.989-527.488c9.433-16.045 15.005-35.343 15.005-55.943 0-61.313-49.362-111.097-110.514-111.78l-0.064-0.001h-632.235c-61.206 0.697-110.554 50.475-110.554 111.78 0 20.582 5.562 39.865 15.266 56.427l-0.030 0.027 315.861 527.189c10.115 16.478 23.867 29.807 40.198 39.135l0.549 0.289zM474.709 281.941c0 20.565 16.725 37.248 37.291 37.248h0.384c20.583 0 37.269-16.686 37.269-37.269s-16.686-37.269-37.269-37.269h-0.384c-20.562 0.024-37.224 16.686-37.248 37.246v0.002zM549.291 580.096c0 20.595-16.696 37.291-37.291 37.291s-37.291-16.696-37.291-37.291v0-149.077c0-20.595 16.696-37.291 37.291-37.291s37.291 16.696 37.291 37.291v0 149.077z" />
<glyph unicode="&#xe93f;" glyph-name="check-circle-fill" data-tags="check-circle-fill" d="M85.333 460.8c0-235.264 191.403-426.667 426.667-426.667s426.667 191.403 426.667 426.667-191.403 426.667-426.667 426.667-426.667-191.403-426.667-426.667zM396.885 280.064c5.957-5.903 14.158-9.55 23.211-9.55s17.253 3.647 23.213 9.552l-0.003-0.002 295.381 295.381c5.378 5.831 8.675 13.652 8.675 22.243 0 18.144-14.709 32.853-32.853 32.853-8.591 0-16.412-3.298-22.266-8.696l0.023 0.021-272.128-272.171-108.117 108.075c-5.831 5.378-13.652 8.675-22.243 8.675-18.144 0-32.853-14.709-32.853-32.853 0-8.591 3.298-16.412 8.696-22.266l-0.021 0.023 131.285-131.285z" />
<glyph unicode="&#xe940;" glyph-name="info-circle-fill" data-tags="info-circle-fill" d="M85.333 460.8c0 235.648 191.019 426.667 426.667 426.667s426.667-191.019 426.667-426.667-191.019-426.667-426.667-426.667-426.667 191.019-426.667 426.667zM512 499.627c21.443 0 38.827-17.383 38.827-38.827v0-155.136c0-21.443-17.383-38.827-38.827-38.827s-38.827 17.383-38.827 38.827v0 155.136c0 21.443 17.383 38.827 38.827 38.827v0zM512 654.72c-0.543 0.027-1.18 0.043-1.82 0.043-21.443 0-38.827-17.383-38.827-38.827s17.383-38.827 38.827-38.827c0.64 0 1.276 0.015 1.909 0.046l-0.089-0.003h0.427c0.543-0.027 1.18-0.043 1.82-0.043 21.443 0 38.827 17.383 38.827 38.827s-17.383 38.827-38.827 38.827c-0.64 0-1.276-0.015-1.909-0.046l0.089 0.003h-0.427z" />
<glyph unicode="&#xe941;" glyph-name="maximize" data-tags="maximize" d="M625.775 834.133c-17.673 0-32-14.327-32-32s14.327-32 32-32h150.306l-210.854-210.854c-12.497-12.497-12.497-32.76 0-45.257 12.497-12.493 32.759-12.493 45.257 0l210.85 210.852v-150.296c0-17.673 14.323-31.999 32-31.999 17.673 0 32 14.325 32 31.999v227.043c0.132 8.359-2.991 16.761-9.37 23.139-3.511 3.509-7.629 6.033-12.019 7.571-3.324 1.167-6.895 1.802-10.611 1.802h-227.558zM202.667 347.025c0 17.673-14.327 32-32 32s-32-14.327-32-32v-227.558c0-3.716 0.635-7.287 1.802-10.611 1.538-4.39 4.062-8.508 7.571-12.019 6.379-6.379 14.78-9.502 23.139-9.37h227.043c17.673 0 31.999 14.327 31.999 32 0 17.677-14.325 32-31.999 32h-150.296l210.852 210.85c12.493 12.497 12.493 32.759 0 45.257-12.497 12.497-32.76 12.497-45.257 0l-210.854-210.854v150.306z" />
<glyph unicode="&#xe942;" glyph-name="expand-panel" data-tags="expand-panel" d="M796.446 375.467c0 15.701 12.74 28.446 28.442 28.446s28.446-12.745 28.446-28.446v-227.554c0-15.701-12.745-28.446-28.446-28.446h-625.776c-15.701 0-28.445 12.745-28.445 28.446v625.776c0 15.701 12.743 28.445 28.445 28.445h227.555c15.701 0 28.446-12.743 28.446-28.445s-12.745-28.444-28.446-28.444h-199.111v-568.89h568.89v199.113zM824.887 802.133c11.494-0.057 21.845-6.997 26.283-17.579 1.425-3.47 2.163-7.111 2.163-10.866v-227.555c0-15.701-12.745-28.446-28.446-28.446s-28.442 12.745-28.442 28.446v158.891l-292.753-292.809c-11.149-11.149-29.124-11.149-40.277 0-11.149 11.153-11.149 29.129 0 40.277l292.809 292.752h-158.891c-15.701 0-28.446 12.743-28.446 28.444s12.745 28.445 28.446 28.445h227.554z" />
<glyph unicode="&#xe943;" glyph-name="mic" data-tags="mic" d="M257.466 415.031l-0.7 2.995c-3.625 15.531 5.956 31.095 21.52 34.782 15.517 3.622 31.143-5.935 34.79-21.534 25.83-109.717 113.547-184.35 215.991-184.674 0.226 0.004 0.452 0.009 0.678 0.009 0.222 0 0.448-0.004 0.674-0.009 102.656 0.333 190.502 75.29 216.132 185.37 3.631 15.509 19.187 25.229 34.756 21.594 15.492-3.631 25.225-19.127 21.594-34.718-29.018-124.71-125.555-215.735-244.224-228.557v-98.291h115.691c8.969 0 16.495-3.473 21.666-9.297 4.992-5.619 7.253-12.804 7.253-19.635s-2.261-14.016-7.253-19.639c-5.171-5.82-12.698-9.293-21.666-9.293h-289.247c-8.971 0-16.495 3.473-21.666 9.293-4.993 5.623-7.257 12.809-7.257 19.639s2.264 14.016 7.257 19.635c5.171 5.824 12.695 9.297 21.666 9.297h115.692v98.287c-117.447 12.676-213.242 101.978-243.347 224.747zM529.728 345.109c60.587 0 115.725 64.614 115.725 151.859v180.775c0 87.21-55.138 151.86-115.725 151.86s-115.693-64.611-115.693-151.86v-180.775c0-87.245 55.107-151.859 115.693-151.859zM529.728 287.245c-98.833 0-173.556 96.866-173.556 209.724v180.775c0 112.822 74.723 209.723 173.556 209.723s173.551-96.929 173.551-209.723v-180.775c0-112.819-74.722-209.724-173.551-209.724z" />
<glyph unicode="&#xe944;" glyph-name="send" data-tags="send" d="M213.514 752.991c-10.586 4.499-22.849 1.997-30.827-6.289s-10.012-20.636-5.114-31.043l122.33-259.952-122.143-249.374c-5.062-10.334-3.215-22.724 4.643-31.134s20.093-11.089 30.748-6.741l640 261.333c10.368 4.233 17.169 14.285 17.25 25.481 0.077 11.196-6.583 21.342-16.887 25.719l-639.999 272.001zM258.705 673.516l451.204-190.316h-361.643l-89.561 190.316zM347.964 427.733h356.036l-444.392-180.39 88.355 180.39z" />
<glyph unicode="&#xe945;" glyph-name="share" data-tags="share" d="M725.333 770.133c-38.878 0-70.4-31.519-70.4-70.4s31.522-70.4 70.4-70.4c38.882 0 70.4 31.519 70.4 70.4s-31.518 70.4-70.4 70.4zM590.933 699.733c0 74.227 60.173 134.4 134.4 134.4s134.4-60.173 134.4-134.4c0-74.227-60.173-134.4-134.4-134.4s-134.4 60.173-134.4 134.4zM315.733 531.2c-38.881 0-70.4-31.522-70.4-70.4 0-38.882 31.519-70.4 70.4-70.4s70.4 31.518 70.4 70.4c0 38.878-31.519 70.4-70.4 70.4zM181.333 460.8c0 74.227 60.173 134.398 134.4 134.398s134.4-60.171 134.4-134.398c0-74.227-60.173-134.4-134.4-134.4s-134.4 60.173-134.4 134.4zM725.333 292.267c-38.878 0-70.4-31.518-70.4-70.4 0-38.878 31.522-70.4 70.4-70.4 38.882 0 70.4 31.522 70.4 70.4 0 38.882-31.518 70.4-70.4 70.4zM590.933 221.867c0 74.227 60.173 134.4 134.4 134.4s134.4-60.173 134.4-134.4c0-74.227-60.173-134.4-134.4-134.4s-134.4 60.173-134.4 134.4zM376.492 425.37c8.898 15.27 28.49 20.433 43.759 11.537l233.133-135.851c15.266-8.9 20.433-28.489 11.537-43.759-8.9-15.27-28.493-20.437-43.763-11.537l-233.129 135.851c-15.27 8.896-20.435 28.489-11.537 43.759zM664.567 664.322c8.909-15.264 3.755-34.859-11.507-43.767l-232.791-135.849c-15.264-8.909-34.859-3.755-43.767 11.507-8.908 15.266-3.755 34.859 11.509 43.767l232.788 135.85c15.266 8.908 34.859 3.755 43.767-11.509z" />
<glyph unicode="&#xe946;" glyph-name="time" data-tags="time" d="M196.267 469.333c0 169.662 137.538 307.2 307.2 307.2 169.664 0 307.2-137.538 307.2-307.2 0-169.664-137.536-307.2-307.2-307.2-169.662 0-307.2 137.536-307.2 307.2zM503.467 844.8c-207.365 0-375.467-168.102-375.467-375.467s168.102-375.467 375.467-375.467c207.364 0 375.467 168.102 375.467 375.467s-168.102 375.467-375.467 375.467zM537.6 674.134c0 18.851-15.283 34.133-34.133 34.133s-34.133-15.282-34.133-34.133v-204.801c0-12.928 7.305-24.747 18.867-30.528l136.533-68.267c16.862-8.431 37.367-1.596 45.794 15.262 8.431 16.862 1.6 37.367-15.262 45.798l-117.666 58.829v183.706z" />
<glyph unicode="&#xe947;" glyph-name="serra-listening" data-tags="serra-listening" d="M629.205 698.511h-220.506v81.766c38.741 12.899 67.776 49.497 67.776 93.572 0 54.875-44.122 98.951-98.953 98.951-54.875 0-98.951-44.119-98.951-98.951 0-43.025 27.984-79.58 67.774-93.572v-81.766h-220.507c-68.824 0-125.84-55.925-125.84-125.839v-545.339c0-32.273 18.277-59.162 47.311-72.060 9.664-4.288 20.42-6.473 30.127-6.473 19.37 0 38.74 7.522 53.782 22.605l116.137 112.9h382.949c68.826 0 125.841 55.923 125.841 125.841v362.48c-1.050 69.917-57.015 125.882-126.938 125.882l-0.004 0.002zM377.527 909.315c19.37 0 36.555-16.134 36.555-36.555 0-20.462-17.186-35.505-36.555-35.505s-36.555 16.134-36.555 36.555c0 20.462 17.186 35.505 36.555 35.505zM692.702 210.146c0-34.411-27.985-62.396-62.396-62.396h-395.848c-8.614 0-16.134-3.234-21.513-8.614l-124.753-122.603c-6.47-6.468-13.992-4.284-16.134-3.234-3.235 1.092-9.664 4.288-9.664 13.995l-0.042 545.339c0 34.412 27.984 62.396 62.396 62.396h504.454c34.415 0 62.4-27.984 62.4-62.396v-362.482l1.101-0.004zM477.572 365.065h-200.091c-8.614 0-16.134-7.522-16.134-16.137 0-64.538 51.639-116.181 116.18-116.181s116.182 51.639 116.182 116.181c0 8.572-7.522 16.137-16.137 16.137zM551.77 483.383c0-77.478-116.177-77.478-116.177 0 0 77.438 116.177 77.438 116.177 0zM319.465 483.383c0-77.478-116.18-77.478-116.18 0 0 77.438 116.18 77.438 116.18 0zM675.046 972.8c-19.354 0-35.046-15.691-35.046-35.048s15.693-35.048 35.046-35.048c178.287 0 278.861-100.571 278.861-257.524 0-19.356 15.689-35.048 35.046-35.048 19.354 0 35.046 15.692 35.046 35.048 0 199.619-128 327.619-348.954 327.619zM661.333 840.229c-19.358 0-35.046-15.692-35.046-35.048s15.689-35.048 35.046-35.048c106.667 0 164.57-53.333 164.57-160 0-19.356 15.693-35.048 35.051-35.048 19.354 0 35.046 15.692 35.046 35.048 0 149.333-85.333 230.095-234.667 230.095z" />
<glyph unicode="&#xe948;" glyph-name="zoom-in" data-tags="zoom-in" d="M204.8 512.337c0-148.454 120.346-268.8 268.8-268.8 72.422 0 138.155 28.642 186.492 75.217 1.007 1.314 2.112 2.573 3.315 3.776s2.462 2.308 3.776 3.315c46.575 48.337 75.217 114.069 75.217 186.492 0 148.455-120.346 268.801-268.8 268.801s-268.8-120.346-268.8-268.801zM689.318 242.313c-59.123-47.292-134.118-75.575-215.718-75.575-190.87 0-345.6 154.731-345.6 345.6 0 190.871 154.73 345.601 345.6 345.601s345.6-154.73 345.6-345.601c0-81.6-28.279-156.595-75.575-215.718l141.129-141.129c14.997-14.997 14.997-39.309 0-54.306-14.997-14.993-39.309-14.993-54.306 0l-141.129 141.129zM473.6 665.938c-21.21 0-38.4-17.193-38.4-38.4v-76.8h-76.8c-21.207 0-38.4-17.192-38.4-38.401 0-21.205 17.193-38.4 38.4-38.4h76.8v-76.8c0-21.205 17.19-38.4 38.4-38.4 21.205 0 38.4 17.195 38.4 38.4v76.8h76.8c21.205 0 38.4 17.195 38.4 38.4 0 21.21-17.195 38.401-38.4 38.401h-76.8v76.8c0 21.207-17.195 38.4-38.4 38.4z" />
<glyph unicode="&#xe949;" glyph-name="zoom-out" data-tags="zoom-out" d="M473.6 781.138c148.454 0 268.8-120.346 268.8-268.801 0-72.422-28.642-138.155-75.217-186.492-1.314-1.007-2.573-2.112-3.776-3.315s-2.308-2.462-3.315-3.776c-48.337-46.575-114.069-75.217-186.492-75.217-148.454 0-268.8 120.346-268.8 268.8s120.346 268.801 268.8 268.801zM473.6 166.737c81.6 0 156.595 28.284 215.718 75.575l141.129-141.129c14.997-14.993 39.309-14.993 54.306 0 14.997 14.997 14.997 39.309 0 54.306l-141.129 141.129c47.296 59.123 75.575 134.118 75.575 215.718 0 190.871-154.731 345.601-345.6 345.601s-345.6-154.73-345.6-345.601c0-190.869 154.73-345.6 345.6-345.6zM358.4 550.738h230.4c21.205 0 38.4-17.192 38.4-38.401 0-21.205-17.195-38.4-38.4-38.4h-230.4c-21.207 0-38.4 17.195-38.4 38.4 0 21.21 17.193 38.401 38.4 38.401z" />
<glyph unicode="&#xe94a;" glyph-name="export" data-tags="export" d="M543.471 162.697l-375.466-85.333c-15-3.533-31.567 9.634-31.467 25.067v716.698c-0.1 15.433 16.467 28.6 31.467 25.067l375.466-85.3c11.166-2.633 19.802-13.6 19.733-25.067v-119.467c0.201-13.533-12.066-25.967-25.6-25.967s-25.801 12.433-25.6 25.967v98.935l-324.266 73.6v-652.203l324.266 73.6v98.935c-0.201 13.534 12.066 25.967 25.6 25.967s25.801-12.433 25.6-25.967v-119.467c-0.098-12.032-9.468-22.665-19.733-25.067v0zM887.467 460.766c-0.235-6.101-2.765-13.167-6.933-17.6l-136.533-145.067c-9.267-8.299-26.999-11.733-37.333-2.133-10.202 9.468-9.865 27.831 0.265 37.333l96 101.871h-538.4c-14.133 0-25.6 11.469-25.6 25.6s11.467 25.6 25.6 25.6h538.4l-96 101.871c-8.73 8.766-10.364 27.767-0.265 37.333 10.065 9.567 28.467 6.5 37.333-2.133l136.533-145.067c4.668-4.966 6.933-10.799 6.933-17.6v-0.009z" />
<glyph unicode="&#xe94b;" glyph-name="print" data-tags="print" d="M112 167.467h160v-106.667c0-14.733 11.933-26.667 26.667-26.667h426.667c14.733 0 26.667 11.934 26.667 26.667v106.667h160c14.733 0 26.667 11.934 26.667 26.667v426.667c0 14.734-11.934 26.667-26.667 26.667h-160v213.333c0 14.734-11.934 26.667-26.667 26.667h-426.667c-14.734 0-26.667-11.933-26.667-26.667v-213.333h-160c-14.734 0-26.667-11.933-26.667-26.667v-426.667c0-14.733 11.933-26.667 26.667-26.667zM698.667 87.467h-373.333v266.667h373.333v-266.667zM325.333 834.133h373.333v-186.667h-373.333v186.667zM138.667 594.133h746.667v-373.333h-133.333v160c0 14.733-11.934 26.667-26.667 26.667h-426.667c-14.734 0-26.667-11.934-26.667-26.667v-160h-133.333v373.333zM645.333 300.8h-266.667c-14.734 0-26.667-11.934-26.667-26.667s11.933-26.667 26.667-26.667h266.667c14.733 0 26.667 11.934 26.667 26.667s-11.934 26.667-26.667 26.667zM645.333 194.133h-266.667c-14.734 0-26.667-11.934-26.667-26.667s11.933-26.667 26.667-26.667h266.667c14.733 0 26.667 11.934 26.667 26.667s-11.934 26.667-26.667 26.667z" />
<glyph unicode="&#xe94c;" glyph-name="unlink" data-tags="unlink" d="M706.112 408.883l96.35 95.889c17.57 17.621 31.168 38.797 39.881 62.109 8.713 23.31 12.339 48.215 10.633 73.041-1.702 24.827-8.7 49.002-20.514 70.903-11.819 21.901-28.181 41.021-47.996 56.077-24.401 18.646-53.355 30.406-83.849 34.055-26.295 3.29-52.996 0.513-78.054-8.118s-47.804-22.887-66.496-41.673l-95.949-96.276c-2.47-2.473-4.429-5.408-5.764-8.639s-2.022-6.694-2.018-10.189c0-3.496 0.695-6.957 2.035-10.185 1.344-3.228 3.311-6.16 5.786-8.628 2.479-2.467 5.414-4.423 8.649-5.754s6.699-2.011 10.193-2.002c3.494 0.009 6.955 0.707 10.18 2.055s6.157 3.318 8.619 5.798l95.744 96.268c22.716 22.725 53.53 35.496 85.658 35.503 32.132 0.007 62.95-12.75 85.675-35.465s35.494-53.527 35.503-85.658c0.009-32.131-12.749-62.948-35.465-85.672l-96.333-95.744c-4.996-4.975-7.817-11.738-7.829-18.79-0.017-7.053 2.769-13.824 7.748-18.825s11.738-7.817 18.79-7.834c7.057-0.013 13.828 2.773 18.825 7.753v0zM526.353 304.346l-95.812-96.273c-22.715-22.711-53.523-35.473-85.647-35.473s-62.932 12.762-85.647 35.473c-22.715 22.716-35.476 53.525-35.476 85.649s12.761 62.929 35.476 85.645c0 0 58.39 58.253 96.243 95.838 2.483 2.458 4.457 5.38 5.808 8.602 1.351 3.226 2.053 6.682 2.065 10.176s-0.665 6.955-1.993 10.189c-1.328 3.23-3.281 6.17-5.746 8.644s-5.395 4.442-8.622 5.781c-3.226 1.344-6.686 2.035-10.18 2.035-3.494 0.004-6.954-0.683-10.182-2.022-3.228-1.335-6.161-3.298-8.629-5.769l-96.314-95.923c-32.674-32.674-51.030-76.988-51.030-123.196s18.356-90.526 51.030-123.2c32.674-32.674 76.989-51.029 123.198-51.029s90.523 18.355 123.197 51.029l95.915 96.311c2.462 2.47 4.416 5.402 5.743 8.631 1.331 3.226 2.014 6.682 2.005 10.172-0.004 3.49-0.7 6.946-2.039 10.167s-3.302 6.148-5.777 8.61c-2.47 2.462-5.406 4.416-8.631 5.747-3.226 1.327-6.686 2.010-10.176 2.005-3.486-0.009-6.942-0.7-10.163-2.044-3.221-1.34-6.148-3.302-8.614-5.777v0zM823.945 298.97l-96.444 2.496 77.756-57.109c3.827-2.812 8.26-4.681 12.941-5.461 4.685-0.777 9.485-0.444 14.012 0.977 4.531 1.421 8.661 3.887 12.062 7.198 3.401 3.315 5.973 7.381 7.509 11.87 1.536 4.493 1.993 9.284 1.335 13.986-0.657 4.698-2.411 9.178-5.12 13.077-2.714 3.895-6.302 7.1-10.479 9.353s-8.828 3.49-13.572 3.614zM671.334 245.466l2.496-96.444c0.124-4.745 1.361-9.395 3.614-13.572s5.457-7.765 9.353-10.475c3.9-2.714 8.38-4.467 13.082-5.124 4.698-0.657 9.489-0.201 13.982 1.34 4.489 1.536 8.555 4.109 11.87 7.505 3.311 3.401 5.777 7.535 7.198 12.062 1.421 4.531 1.754 9.331 0.973 14.012-0.777 4.685-2.645 9.118-5.457 12.941l-57.109 77.756zM350.234 772.669c-0.123 4.745-1.361 9.395-3.614 13.573s-5.457 7.767-9.355 10.477c-3.897 2.71-8.378 4.465-13.079 5.123s-9.491 0.199-13.982-1.338c-4.491-1.537-8.558-4.109-11.87-7.508s-5.779-7.532-7.199-12.061c-1.42-4.529-1.754-9.329-0.975-14.012s2.649-9.116 5.459-12.942l57.111-77.756-2.496 96.444zM172.296 662.679c-1.537-4.491-1.995-9.281-1.338-13.982s2.412-9.181 5.123-13.079c2.71-3.897 6.299-7.102 10.477-9.355s8.828-3.491 13.574-3.614l96.444-2.496-77.756 57.111c-3.826 2.81-8.259 4.68-12.942 5.459s-9.483 0.445-14.012-0.975c-4.529-1.42-8.661-3.886-12.061-7.199s-5.972-7.38-7.509-11.871z" />
<glyph unicode="&#xe94d;" glyph-name="link" data-tags="link" d="M706.031 408.883l96.35 95.889c17.57 17.621 31.168 38.797 39.881 62.109 8.713 23.31 12.335 48.215 10.633 73.041-1.707 24.827-8.7 49.002-20.518 70.903-11.814 21.901-28.181 41.021-47.996 56.077-24.401 18.646-53.355 30.406-83.844 34.055-26.3 3.29-53.001 0.513-78.054-8.118-25.058-8.631-47.804-22.887-66.496-41.673l-95.949-96.276c-2.47-2.473-4.433-5.408-5.769-8.639s-2.022-6.694-2.018-10.189c0.004-3.496 0.695-6.957 2.039-10.185s3.307-6.16 5.786-8.628c2.475-2.467 5.414-4.423 8.649-5.754 3.23-1.331 6.694-2.011 10.189-2.002 3.499 0.009 6.959 0.707 10.185 2.055s6.153 3.318 8.619 5.798l95.744 96.268c22.716 22.725 53.525 35.496 85.658 35.503s62.946-12.75 85.675-35.465c22.724-22.715 35.494-53.527 35.499-85.658 0.009-32.131-12.749-62.948-35.465-85.672l-96.329-95.744c-5.001-4.975-7.817-11.738-7.834-18.79-0.013-7.053 2.773-13.824 7.748-18.825 4.979-5.001 11.738-7.817 18.795-7.834 7.053-0.013 13.824 2.773 18.825 7.753v0zM526.353 304.346l-95.812-96.273c-22.715-22.711-53.523-35.473-85.647-35.473s-62.932 12.762-85.647 35.473c-22.715 22.716-35.476 53.525-35.476 85.649s12.761 62.929 35.476 85.645c0 0 58.39 58.253 96.243 95.838 2.483 2.458 4.457 5.38 5.808 8.602 1.351 3.226 2.053 6.682 2.065 10.176s-0.665 6.955-1.993 10.189c-1.328 3.23-3.281 6.17-5.746 8.644s-5.395 4.442-8.622 5.781c-3.226 1.344-6.686 2.035-10.18 2.035-3.494 0.004-6.954-0.683-10.182-2.022-3.228-1.335-6.161-3.298-8.629-5.769l-96.314-95.923c-32.674-32.674-51.030-76.988-51.030-123.196s18.356-90.526 51.030-123.2c32.674-32.674 76.989-51.029 123.198-51.029s90.523 18.355 123.197 51.029l95.915 96.311c2.462 2.47 4.416 5.402 5.743 8.631 1.331 3.226 2.014 6.682 2.005 10.172-0.004 3.49-0.7 6.946-2.039 10.167s-3.302 6.148-5.777 8.61c-2.47 2.462-5.406 4.416-8.631 5.747-3.226 1.327-6.686 2.010-10.176 2.005-3.486-0.009-6.942-0.7-10.163-2.044-3.221-1.34-6.148-3.302-8.614-5.777v0zM364.361 309.687c-10.831 10.833-10.831 28.39 0 39.223l259.447 259.445c10.829 10.831 28.39 10.831 39.219 0s10.829-28.39 0-39.221l-259.446-259.448c-10.831-10.829-28.39-10.829-39.221 0z" />
<glyph unicode="&#xe94e;" glyph-name="account_statement" data-tags="Account_Statement" d="M263.619 844.8h306.006c0.811 0 1.617-0.035 2.419-0.104 6.605-0.571 12.83-3.47 17.557-8.227l188.314-189.63c5.295-5.334 8.273-12.569 8.273-20.113v-497.779c0-28.791-23.194-52.147-51.789-52.147h-470.781c-28.594 0-51.786 23.356-51.786 52.147v663.705c0 28.794 23.192 52.148 51.786 52.148zM541.363 787.911h-273.036v-654.224h461.367v464.594h-136.546c-28.595 0-51.785 23.354-51.785 52.148v137.482zM689.745 655.17l-91.887 92.533v-92.533h91.887zM498.667 674.133h-186.667c-7.36 0-13.333 9.557-13.333 21.333s5.973 21.333 13.333 21.333h186.667c7.36 0 13.333-9.557 13.333-21.333s-5.973-21.333-13.333-21.333zM498.667 588.8h-186.667c-7.36 0-13.333 9.557-13.333 21.333s5.973 21.333 13.333 21.333h186.667c7.36 0 13.333-9.557 13.333-21.333s-5.973-21.333-13.333-21.333zM658.667 503.467h-336c-13.248 0-24 9.557-24 21.333s10.752 21.333 24 21.333h336c13.248 0 24-9.557 24-21.333s-10.752-21.333-24-21.333zM658.667 418.133h-336c-13.248 0-24 9.557-24 21.333s10.752 21.333 24 21.333h336c13.248 0 24-9.557 24-21.333s-10.752-21.333-24-21.333zM426.667 332.8v-85.333h-85.333v85.333h85.333zM341.333 375.467c-23.564 0-42.667-19.102-42.667-42.667v-85.333c0-23.565 19.103-42.667 42.667-42.667h85.333c23.565 0 42.667 19.102 42.667 42.667v85.333c0 23.565-19.102 42.667-42.667 42.667h-85.333zM640 332.8v-85.333h-85.333v85.333h85.333zM554.667 375.467c-23.565 0-42.667-19.102-42.667-42.667v-85.333c0-23.565 19.102-42.667 42.667-42.667h85.333c23.565 0 42.667 19.102 42.667 42.667v85.333c0 23.565-19.102 42.667-42.667 42.667h-85.333z" />
<glyph unicode="" glyph-name="account_statement" data-tags="Account_Statement" d="M263.619 844.8h306.006c0.811 0 1.617-0.035 2.419-0.104 6.605-0.571 12.83-3.47 17.557-8.227l188.314-189.63c5.295-5.334 8.273-12.569 8.273-20.113v-497.779c0-28.791-23.194-52.147-51.789-52.147h-470.781c-28.594 0-51.786 23.356-51.786 52.147v663.705c0 28.794 23.192 52.148 51.786 52.148zM541.363 787.911h-273.036v-654.224h461.367v464.594h-136.546c-28.595 0-51.785 23.354-51.785 52.148v137.482zM689.745 655.17l-91.887 92.533v-92.533h91.887zM498.667 674.133h-186.667c-7.36 0-13.333 9.557-13.333 21.333s5.973 21.333 13.333 21.333h186.667c7.36 0 13.333-9.557 13.333-21.333s-5.973-21.333-13.333-21.333zM498.667 588.8h-186.667c-7.36 0-13.333 9.557-13.333 21.333s5.973 21.333 13.333 21.333h186.667c7.36 0 13.333-9.557 13.333-21.333s-5.973-21.333-13.333-21.333zM658.667 503.467h-336c-13.248 0-24 9.557-24 21.333s10.752 21.333 24 21.333h336c13.248 0 24-9.557 24-21.333s-10.752-21.333-24-21.333zM658.667 418.133h-336c-13.248 0-24 9.557-24 21.333s10.752 21.333 24 21.333h336c13.248 0 24-9.557 24-21.333s-10.752-21.333-24-21.333zM426.667 332.8v-85.333h-85.333v85.333h85.333zM341.333 375.467c-23.564 0-42.667-19.102-42.667-42.667v-85.333c0-23.565 19.103-42.667 42.667-42.667h85.333c23.565 0 42.667 19.102 42.667 42.667v85.333c0 23.565-19.102 42.667-42.667 42.667h-85.333zM640 332.8v-85.333h-85.333v85.333h85.333zM554.667 375.467c-23.565 0-42.667-19.102-42.667-42.667v-85.333c0-23.565 19.102-42.667 42.667-42.667h85.333c23.565 0 42.667 19.102 42.667 42.667v85.333c0 23.565-19.102 42.667-42.667 42.667h-85.333z" />
<glyph unicode="zoom-out" glyph-name="zoom-out" data-tags="zoom-out" d="M473.6 781.138c148.454 0 268.8-120.346 268.8-268.801 0-72.422-28.642-138.155-75.217-186.492-1.314-1.007-2.573-2.112-3.776-3.315s-2.308-2.462-3.315-3.776c-48.337-46.575-114.069-75.217-186.492-75.217-148.454 0-268.8 120.346-268.8 268.8s120.346 268.801 268.8 268.801zM473.6 166.737c81.6 0 156.595 28.284 215.718 75.575l141.129-141.129c14.997-14.993 39.309-14.993 54.306 0 14.997 14.997 14.997 39.309 0 54.306l-141.129 141.129c47.296 59.123 75.575 134.118 75.575 215.718 0 190.871-154.731 345.601-345.6 345.601s-345.6-154.73-345.6-345.601c0-190.869 154.73-345.6 345.6-345.6zM358.4 550.738h230.4c21.205 0 38.4-17.192 38.4-38.401 0-21.205-17.195-38.4-38.4-38.4h-230.4c-21.207 0-38.4 17.195-38.4 38.4 0 21.21 17.193 38.401 38.4 38.401z" />
<glyph unicode="zoom-in" glyph-name="zoom-in" data-tags="zoom-in" d="M204.8 512.337c0-148.454 120.346-268.8 268.8-268.8 72.422 0 138.155 28.642 186.492 75.217 1.007 1.314 2.112 2.573 3.315 3.776s2.462 2.308 3.776 3.315c46.575 48.337 75.217 114.069 75.217 186.492 0 148.455-120.346 268.801-268.8 268.801s-268.8-120.346-268.8-268.801zM689.318 242.313c-59.123-47.292-134.118-75.575-215.718-75.575-190.87 0-345.6 154.731-345.6 345.6 0 190.871 154.73 345.601 345.6 345.601s345.6-154.73 345.6-345.601c0-81.6-28.279-156.595-75.575-215.718l141.129-141.129c14.997-14.997 14.997-39.309 0-54.306-14.997-14.993-39.309-14.993-54.306 0l-141.129 141.129zM473.6 665.938c-21.21 0-38.4-17.193-38.4-38.4v-76.8h-76.8c-21.207 0-38.4-17.192-38.4-38.401 0-21.205 17.193-38.4 38.4-38.4h76.8v-76.8c0-21.205 17.19-38.4 38.4-38.4 21.205 0 38.4 17.195 38.4 38.4v76.8h76.8c21.205 0 38.4 17.195 38.4 38.4 0 21.21-17.195 38.401-38.4 38.401h-76.8v76.8c0 21.207-17.195 38.4-38.4 38.4z" />
<glyph unicode="worklist" glyph-name="worklist" data-tags="worklist" horiz-adv-x="1067" d="M172.495 823.467c0 38.292 31.041 69.333 69.333 69.333h554.665c38.293 0 69.333-31.042 69.333-69.333v-725.333c0-38.293-31.040-69.333-69.333-69.333h-554.665c-38.292 0-69.333 31.040-69.333 69.333v725.333zM241.828 839.467c-8.837 0-16-7.163-16-16v-725.333c0-8.836 7.163-16 16-16h554.665c8.841 0 16 7.164 16 16v725.333c0 8.837-7.159 16-16 16h-554.665zM300.495 716.8c0 26.51 21.49 48 48 48s48-21.49 48-48c0-26.51-21.49-48-48-48s-48 21.49-48 48zM428.493 716.8c0 14.728 11.942 26.667 26.667 26.667h256c14.729 0 26.667-11.939 26.667-26.667s-11.938-26.667-26.667-26.667h-256c-14.724 0-26.667 11.939-26.667 26.667zM300.495 546.133c0 26.51 21.49 48 48 48s48-21.49 48-48c0-26.509-21.49-48-48-48s-48 21.491-48 48zM428.493 546.133c0 14.728 11.942 26.667 26.667 26.667h256c14.729 0 26.667-11.939 26.667-26.667s-11.938-26.667-26.667-26.667h-256c-14.724 0-26.667 11.938-26.667 26.667zM300.495 375.467c0 26.509 21.49 48 48 48s48-21.491 48-48c0-26.509-21.49-48-48-48s-48 21.491-48 48zM428.493 375.467c0 14.729 11.942 26.667 26.667 26.667h256c14.729 0 26.667-11.938 26.667-26.667s-11.938-26.667-26.667-26.667h-256c-14.724 0-26.667 11.938-26.667 26.667zM300.495 204.8c0 26.509 21.49 48 48 48s48-21.491 48-48c0-26.509-21.49-48-48-48s-48 21.491-48 48zM428.493 204.8c0 14.729 11.942 26.667 26.667 26.667h256c14.729 0 26.667-11.938 26.667-26.667s-11.938-26.667-26.667-26.667h-256c-14.724 0-26.667 11.938-26.667 26.667z" />
<glyph unicode="view-off" glyph-name="view-off" data-tags="view-off" d="M501.346 172.843c-167.84 0-317.28 103.573-371.786 257.758-2.080 5.76-2.080 12.053 0 17.762 54.507 154.239 203.947 257.812 371.786 257.812 167.842 0 317.282-103.573 371.84-257.761 2.027-5.705 2.027-11.998 0-17.758-54.558-154.24-203.998-257.813-371.84-257.813zM183.107 439.509c49.547-128 176.16-213.333 318.24-213.333 142.029 0 268.693 85.333 318.242 213.333-49.549 127.999-176.213 213.332-318.242 213.332-142.026 0-268.693-85.333-318.24-213.332zM501.346 279.509c-88.213 0-160 71.787-160 160s71.786 159.999 160 159.999c88.213 0 160-71.786 160-159.999s-71.787-160-160-160zM501.346 546.175c-58.825 0-106.666-47.841-106.666-106.666 0-58.829 47.842-106.667 106.666-106.667 58.829 0 106.667 47.838 106.667 106.667 0 58.825-47.838 106.666-106.667 106.666zM794.679 119.505c-6.827 0-13.653 2.615-18.88 7.787l-586.666 586.668c-10.4 10.4-10.4 27.307 0 37.707s27.307 10.4 37.707 0l586.668-586.666c10.398-10.402 10.398-27.307 0-37.709-5.175-5.171-12.002-7.787-18.829-7.787z" />
<glyph unicode="view-columns" glyph-name="view-columns" data-tags="view-columns" d="M770.697 770.558c-140.663 0-203.149 0-371.875 0-36.154 0.015-62.636-0.016-66.291 0h-79.225c-69.524 0-125.305-57.744-125.305-127.863v-438.032c0-70.942 56.59-127.863 125.305-127.863h517.391c69.521 0 125.303 57.745 125.303 127.863v438.032c0 70.118-56.589 127.863-125.303 127.863zM253.305 703.74h80.034v-586.244c0 0 14.551 0 33.145 0s33.145 0 33.145 0v586.244h226.359v-586.244c0 0 14.549 0 33.143 0 17.788 0 33.148 0 33.148 0v586.244h78.417c33.143 0 59.823-27.222 59.823-61.044v-78.367h-637.037v78.367c0 33.822 26.678 61.044 59.823 61.044zM770.697 143.62h-517.391c-33.145 0-59.823 27.221-59.823 61.043v292.023h637.037v-292.023c0-33.822-26.679-61.043-59.823-61.043z" />
<glyph unicode="view" glyph-name="view" data-tags="view" d="M87.116 444.544c62.29-176.205 233.070-294.566 424.876-294.566 191.808 0 362.586 118.362 424.939 294.626 2.317 6.583 2.317 13.773 0 20.297-62.353 176.203-233.131 294.566-424.939 294.566-191.806 0-362.585-118.363-424.876-294.626-2.377-6.524-2.377-13.717 0-20.297zM511.991 210.923c-162.368 0-307.061 97.519-363.683 243.797 56.622 146.279 201.376 243.798 363.683 243.798s307.063-97.519 363.682-243.798c-56.619-146.278-201.374-243.797-363.682-243.797zM329.143 454.72c0-100.809 82.037-182.848 182.848-182.848 100.809 0 182.848 82.039 182.848 182.848 0 100.811-82.039 182.848-182.848 182.848-100.811 0-182.848-82.037-182.848-182.848zM390.092 454.72c0 67.23 54.673 121.9 121.899 121.9s121.899-54.67 121.899-121.9c0-67.226-54.673-121.899-121.899-121.899s-121.899 54.673-121.899 121.899z" />
<glyph unicode="unlink" glyph-name="unlink" data-tags="unlink" d="M706.112 408.883l96.35 95.889c17.57 17.621 31.168 38.797 39.881 62.109 8.713 23.31 12.339 48.215 10.633 73.041-1.702 24.827-8.7 49.002-20.514 70.903-11.819 21.901-28.181 41.021-47.996 56.077-24.401 18.646-53.355 30.406-83.849 34.055-26.295 3.29-52.996 0.513-78.054-8.118s-47.804-22.887-66.496-41.673l-95.949-96.276c-2.47-2.473-4.429-5.408-5.764-8.639s-2.022-6.694-2.018-10.189c0-3.496 0.695-6.957 2.035-10.185 1.344-3.228 3.311-6.16 5.786-8.628 2.479-2.467 5.414-4.423 8.649-5.754s6.699-2.011 10.193-2.002c3.494 0.009 6.955 0.707 10.18 2.055s6.157 3.318 8.619 5.798l95.744 96.268c22.716 22.725 53.53 35.496 85.658 35.503 32.132 0.007 62.95-12.75 85.675-35.465s35.494-53.527 35.503-85.658c0.009-32.131-12.749-62.948-35.465-85.672l-96.333-95.744c-4.996-4.975-7.817-11.738-7.829-18.79-0.017-7.053 2.769-13.824 7.748-18.825s11.738-7.817 18.79-7.834c7.057-0.013 13.828 2.773 18.825 7.753v0zM526.353 304.346l-95.812-96.273c-22.715-22.711-53.523-35.473-85.647-35.473s-62.932 12.762-85.647 35.473c-22.715 22.716-35.476 53.525-35.476 85.649s12.761 62.929 35.476 85.645c0 0 58.39 58.253 96.243 95.838 2.483 2.458 4.457 5.38 5.808 8.602 1.351 3.226 2.053 6.682 2.065 10.176s-0.665 6.955-1.993 10.189c-1.328 3.23-3.281 6.17-5.746 8.644s-5.395 4.442-8.622 5.781c-3.226 1.344-6.686 2.035-10.18 2.035-3.494 0.004-6.954-0.683-10.182-2.022-3.228-1.335-6.161-3.298-8.629-5.769l-96.314-95.923c-32.674-32.674-51.030-76.988-51.030-123.196s18.356-90.526 51.030-123.2c32.674-32.674 76.989-51.029 123.198-51.029s90.523 18.355 123.197 51.029l95.915 96.311c2.462 2.47 4.416 5.402 5.743 8.631 1.331 3.226 2.014 6.682 2.005 10.172-0.004 3.49-0.7 6.946-2.039 10.167s-3.302 6.148-5.777 8.61c-2.47 2.462-5.406 4.416-8.631 5.747-3.226 1.327-6.686 2.010-10.176 2.005-3.486-0.009-6.942-0.7-10.163-2.044-3.221-1.34-6.148-3.302-8.614-5.777v0zM823.945 298.97l-96.444 2.496 77.756-57.109c3.827-2.812 8.26-4.681 12.941-5.461 4.685-0.777 9.485-0.444 14.012 0.977 4.531 1.421 8.661 3.887 12.062 7.198 3.401 3.315 5.973 7.381 7.509 11.87 1.536 4.493 1.993 9.284 1.335 13.986-0.657 4.698-2.411 9.178-5.12 13.077-2.714 3.895-6.302 7.1-10.479 9.353s-8.828 3.49-13.572 3.614zM671.334 245.466l2.496-96.444c0.124-4.745 1.361-9.395 3.614-13.572s5.457-7.765 9.353-10.475c3.9-2.714 8.38-4.467 13.082-5.124 4.698-0.657 9.489-0.201 13.982 1.34 4.489 1.536 8.555 4.109 11.87 7.505 3.311 3.401 5.777 7.535 7.198 12.062 1.421 4.531 1.754 9.331 0.973 14.012-0.777 4.685-2.645 9.118-5.457 12.941l-57.109 77.756zM350.234 772.669c-0.123 4.745-1.361 9.395-3.614 13.573s-5.457 7.767-9.355 10.477c-3.897 2.71-8.378 4.465-13.079 5.123s-9.491 0.199-13.982-1.338c-4.491-1.537-8.558-4.109-11.87-7.508s-5.779-7.532-7.199-12.061c-1.42-4.529-1.754-9.329-0.975-14.012s2.649-9.116 5.459-12.942l57.111-77.756-2.496 96.444zM172.296 662.679c-1.537-4.491-1.995-9.281-1.338-13.982s2.412-9.181 5.123-13.079c2.71-3.897 6.299-7.102 10.477-9.355s8.828-3.491 13.574-3.614l96.444-2.496-77.756 57.111c-3.826 2.81-8.259 4.68-12.942 5.459s-9.483 0.445-14.012-0.975c-4.529-1.42-8.661-3.886-12.061-7.199s-5.972-7.38-7.509-11.871z" />
<glyph unicode="unfold-more" glyph-name="unfold-more" data-tags="unfold-more" d="M318.706 355.426c12.497 12.497 32.758 12.497 45.255 0l148.039-148.036 148.041 148.036c12.497 12.497 32.755 12.497 45.252 0s12.497-32.755 0-45.252l-170.667-170.667c-12.497-12.497-32.755-12.497-45.252 0l-170.668 170.667c-12.497 12.497-12.497 32.755 0 45.252zM705.293 566.173c-12.497-12.497-32.755-12.497-45.252 0l-148.041 148.039-148.039-148.039c-12.497-12.497-32.758-12.497-45.255 0s-12.497 32.758 0 45.255l170.668 170.667c12.497 12.497 32.755 12.497 45.252 0l170.667-170.667c12.497-12.497 12.497-32.758 0-45.255z" />
<glyph unicode="unfold-less" glyph-name="unfold-less" data-tags="unfold-less" d="M705.293 139.507c-12.497-12.497-32.755-12.497-45.252 0l-148.041 148.036-148.039-148.036c-12.497-12.497-32.758-12.497-45.255 0s-12.497 32.755 0 45.252l170.668 170.667c12.497 12.497 32.755 12.497 45.252 0l170.667-170.667c12.497-12.497 12.497-32.755 0-45.252zM318.706 782.094c12.497 12.497 32.758 12.497 45.255 0l148.039-148.039 148.041 148.039c12.497 12.497 32.755 12.497 45.252 0s12.497-32.758 0-45.255l-170.667-170.667c-12.497-12.497-32.755-12.497-45.252 0l-170.668 170.667c-12.497 12.497-12.497 32.758 0 45.255z" />
<glyph unicode="time" glyph-name="time" data-tags="time" d="M196.267 469.333c0 169.662 137.538 307.2 307.2 307.2 169.664 0 307.2-137.538 307.2-307.2 0-169.664-137.536-307.2-307.2-307.2-169.662 0-307.2 137.536-307.2 307.2zM503.467 844.8c-207.365 0-375.467-168.102-375.467-375.467s168.102-375.467 375.467-375.467c207.364 0 375.467 168.102 375.467 375.467s-168.102 375.467-375.467 375.467zM537.6 674.134c0 18.851-15.283 34.133-34.133 34.133s-34.133-15.282-34.133-34.133v-204.801c0-12.928 7.305-24.747 18.867-30.528l136.533-68.267c16.862-8.431 37.367-1.596 45.794 15.262 8.431 16.862 1.6 37.367-15.262 45.798l-117.666 58.829v183.706z" />
<glyph unicode="share" glyph-name="share" data-tags="share" d="M725.333 770.133c-38.878 0-70.4-31.519-70.4-70.4s31.522-70.4 70.4-70.4c38.882 0 70.4 31.519 70.4 70.4s-31.518 70.4-70.4 70.4zM590.933 699.733c0 74.227 60.173 134.4 134.4 134.4s134.4-60.173 134.4-134.4c0-74.227-60.173-134.4-134.4-134.4s-134.4 60.173-134.4 134.4zM315.733 531.2c-38.881 0-70.4-31.522-70.4-70.4 0-38.882 31.519-70.4 70.4-70.4s70.4 31.518 70.4 70.4c0 38.878-31.519 70.4-70.4 70.4zM181.333 460.8c0 74.227 60.173 134.398 134.4 134.398s134.4-60.171 134.4-134.398c0-74.227-60.173-134.4-134.4-134.4s-134.4 60.173-134.4 134.4zM725.333 292.267c-38.878 0-70.4-31.518-70.4-70.4 0-38.878 31.522-70.4 70.4-70.4 38.882 0 70.4 31.522 70.4 70.4 0 38.882-31.518 70.4-70.4 70.4zM590.933 221.867c0 74.227 60.173 134.4 134.4 134.4s134.4-60.173 134.4-134.4c0-74.227-60.173-134.4-134.4-134.4s-134.4 60.173-134.4 134.4zM376.492 425.37c8.898 15.27 28.49 20.433 43.759 11.537l233.133-135.851c15.266-8.9 20.433-28.489 11.537-43.759-8.9-15.27-28.493-20.437-43.763-11.537l-233.129 135.851c-15.27 8.896-20.435 28.489-11.537 43.759zM664.567 664.322c8.909-15.264 3.755-34.859-11.507-43.767l-232.791-135.849c-15.264-8.909-34.859-3.755-43.767 11.507-8.908 15.266-3.755 34.859 11.509 43.767l232.788 135.85c15.266 8.908 34.859 3.755 43.767-11.509z" />
<glyph unicode="serra-listening" glyph-name="serra-listening" data-tags="serra-listening" d="M629.205 698.511h-220.506v81.766c38.741 12.899 67.776 49.497 67.776 93.572 0 54.875-44.122 98.951-98.953 98.951-54.875 0-98.951-44.119-98.951-98.951 0-43.025 27.984-79.58 67.774-93.572v-81.766h-220.507c-68.824 0-125.84-55.925-125.84-125.839v-545.339c0-32.273 18.277-59.162 47.311-72.060 9.664-4.288 20.42-6.473 30.127-6.473 19.37 0 38.74 7.522 53.782 22.605l116.137 112.9h382.949c68.826 0 125.841 55.923 125.841 125.841v362.48c-1.050 69.917-57.015 125.882-126.938 125.882l-0.004 0.002zM377.527 909.315c19.37 0 36.555-16.134 36.555-36.555 0-20.462-17.186-35.505-36.555-35.505s-36.555 16.134-36.555 36.555c0 20.462 17.186 35.505 36.555 35.505zM692.702 210.146c0-34.411-27.985-62.396-62.396-62.396h-395.848c-8.614 0-16.134-3.234-21.513-8.614l-124.753-122.603c-6.47-6.468-13.992-4.284-16.134-3.234-3.235 1.092-9.664 4.288-9.664 13.995l-0.042 545.339c0 34.412 27.984 62.396 62.396 62.396h504.454c34.415 0 62.4-27.984 62.4-62.396v-362.482l1.101-0.004zM477.572 365.065h-200.091c-8.614 0-16.134-7.522-16.134-16.137 0-64.538 51.639-116.181 116.18-116.181s116.182 51.639 116.182 116.181c0 8.572-7.522 16.137-16.137 16.137zM551.77 483.383c0-77.478-116.177-77.478-116.177 0 0 77.438 116.177 77.438 116.177 0zM319.465 483.383c0-77.478-116.18-77.478-116.18 0 0 77.438 116.18 77.438 116.18 0zM675.046 972.8c-19.354 0-35.046-15.691-35.046-35.048s15.693-35.048 35.046-35.048c178.287 0 278.861-100.571 278.861-257.524 0-19.356 15.689-35.048 35.046-35.048 19.354 0 35.046 15.692 35.046 35.048 0 199.619-128 327.619-348.954 327.619zM661.333 840.229c-19.358 0-35.046-15.692-35.046-35.048s15.689-35.048 35.046-35.048c106.667 0 164.57-53.333 164.57-160 0-19.356 15.693-35.048 35.051-35.048 19.354 0 35.046 15.692 35.046 35.048 0 149.333-85.333 230.095-234.667 230.095z" />
<glyph unicode="serra" glyph-name="serra" data-tags="sera-bot outline" d="M536.7 698.511l220.51-0.002c69.922 0 125.888-55.965 126.938-125.882v-362.48c0-69.918-57.015-125.841-125.841-125.841h-382.949l-116.137-112.9c-15.042-15.083-34.412-22.605-53.782-22.605-9.707 0-20.463 2.185-30.127 6.473-29.033 12.898-47.311 39.787-47.311 72.060v545.339c0 69.914 57.015 125.839 125.84 125.839h220.507v81.766c-39.791 13.992-67.774 50.547-67.774 93.572 0 54.832 44.077 98.951 98.951 98.951 54.831 0 98.953-44.076 98.953-98.951 0-44.076-29.035-80.673-67.776-93.572v-81.766zM542.084 872.761c0 20.42-17.186 36.555-36.557 36.555s-36.557-15.043-36.557-35.505c0-20.42 17.186-36.555 36.557-36.555s36.557 15.043 36.557 35.505zM758.306 147.75c34.411 0 62.396 27.985 62.396 62.396l-1.101 0.004v362.482c0 34.412-27.985 62.396-62.4 62.396h-504.454c-34.412 0-62.396-27.984-62.396-62.396l0.042-545.339c0-9.707 6.429-12.902 9.664-13.995 2.142-1.050 9.664-3.234 16.134 3.234l124.753 122.603c5.378 5.38 12.899 8.614 21.513 8.614h395.848zM405.481 365.065h200.091c8.614 0 16.137-7.565 16.137-16.137 0-64.542-51.639-116.181-116.181-116.181s-116.18 51.644-116.18 116.181c0 8.614 7.521 16.137 16.134 16.137zM679.77 483.383c0-77.478-116.177-77.478-116.177 0 0 77.438 116.177 77.438 116.177 0zM447.467 483.383c0-77.478-116.182-77.478-116.182 0 0 77.438 116.182 77.438 116.182 0z" />
<glyph unicode="send" glyph-name="send" data-tags="send" d="M213.514 752.991c-10.586 4.499-22.849 1.997-30.827-6.289s-10.012-20.636-5.114-31.043l122.33-259.952-122.143-249.374c-5.062-10.334-3.215-22.724 4.643-31.134s20.093-11.089 30.748-6.741l640 261.333c10.368 4.233 17.169 14.285 17.25 25.481 0.077 11.196-6.583 21.342-16.887 25.719l-639.999 272.001zM258.705 673.516l451.204-190.316h-361.643l-89.561 190.316zM347.964 427.733h356.036l-444.392-180.39 88.355 180.39z" />
<glyph unicode="search" glyph-name="search" data-tags="search" d="M128 543.104c0-166.315 135.324-301.692 301.696-301.692 73.28 0 140.557 26.283 192.892 69.914l226.513-226.517c5.376-5.321 12.399-8.009 19.422-8.009 7.019 0 14.042 2.688 19.362 8.009 10.697 10.697 10.697 28.083 0 38.78l-226.509 226.509c43.691 52.352 70.012 119.671 70.012 193.007 0 166.372-135.377 301.696-301.692 301.696-166.372 0-301.696-135.324-301.696-301.696zM182.854 543.104c0 136.093 110.749 246.842 246.842 246.842 136.090 0 246.839-110.749 246.839-246.842 0-136.090-110.75-246.839-246.839-246.839-136.093 0-246.842 110.75-246.842 246.839zM622.588 311.326l3.772 3.772-3.447 3.443-3.742-3.119 3.418-4.096zM849.101 84.809l-3.767-3.772 0.017-0.017 3.75 3.789zM887.885 123.588v0zM661.376 350.097l-4.092 3.418-3.123-3.742 3.443-3.447 3.772 3.772zM429.696 246.746c-163.426 0-296.363 132.988-296.363 296.358h-10.667c0-169.259 137.711-307.025 307.029-307.025v10.667zM619.17 315.422c-51.413-42.867-117.491-68.676-189.474-68.676v-10.667c74.577 0 143.053 26.752 196.305 71.151l-6.831 8.192zM852.873 88.58l-226.513 226.517-7.543-7.543 226.517-226.517 7.539 7.543zM868.523 82.133c-5.662 0-11.324 2.163-15.667 6.464l-7.505-7.578c6.404-6.34 14.788-9.553 23.172-9.553v10.667zM884.113 88.58c-4.279-4.279-9.929-6.447-15.59-6.447v-10.667c8.375 0 16.772 3.209 23.134 9.57l-7.543 7.543zM884.113 119.821c8.614-8.614 8.614-22.626 0-31.241l7.543-7.543c12.779 12.779 12.779 33.545 0 46.323l-7.543-7.539zM657.604 346.325l226.509-226.505 7.543 7.539-226.509 226.509-7.543-7.543zM726.054 543.104c0-72.034-25.852-138.159-68.77-189.589l8.188-6.835c44.459 53.269 71.249 121.792 71.249 196.425h-10.667zM429.696 839.467c163.371 0 296.358-132.937 296.358-296.363h10.667c0 169.318-137.766 307.029-307.025 307.029v-10.667zM133.333 543.104c0 163.427 132.936 296.363 296.363 296.363v10.667c-169.318 0-307.029-137.711-307.029-307.029h10.667zM429.696 795.28c-139.039 0-252.176-113.137-252.176-252.176h10.667c0 133.148 108.361 241.509 241.509 241.509v10.667zM681.869 543.104c0 139.039-113.139 252.176-252.173 252.176v-10.667c133.146 0 241.506-108.361 241.506-241.509h10.667zM429.696 290.931c139.034 0 252.173 113.139 252.173 252.173h-10.667c0-133.146-108.361-241.506-241.506-241.506v-10.667zM177.52 543.104c0-139.034 113.137-252.173 252.176-252.173v10.667c-133.148 0-241.509 108.361-241.509 241.506h-10.667z" />
<glyph unicode="reports" glyph-name="reports" data-tags="reports" horiz-adv-x="1067" d="M213.333 792.652v-663.705c0-28.791 23.354-52.147 52.148-52.147h474.073c28.796 0 52.151 23.356 52.151 52.147v497.779c0 7.544-2.999 14.779-8.333 20.113l-189.632 189.63c-4.757 4.757-11.025 7.656-17.677 8.227-0.806 0.069-1.617 0.104-2.436 0.104h-308.146c-28.794 0-52.148-23.354-52.148-52.148zM270.222 787.911h274.943v-137.482c0-28.794 23.356-52.148 52.151-52.148h137.498v-464.594h-464.592v654.224zM602.057 747.703l92.531-92.532h-92.531v92.532zM412.472 342.281v-142.221c0-15.71-12.735-28.446-28.445-28.446s-28.445 12.736-28.445 28.446v142.221c0 15.71 12.735 28.446 28.445 28.446s28.445-12.736 28.445-28.446zM502.528 465.54c-15.71 0-28.446-12.736-28.446-28.446v-237.035c0-15.71 12.736-28.446 28.446-28.446s28.446 12.736 28.446 28.446v237.035c0 15.71-12.736 28.446-28.446 28.446zM649.472 531.913v-331.853c0-15.71-12.736-28.446-28.446-28.446s-28.442 12.736-28.442 28.446v331.853c0 15.709 12.732 28.443 28.442 28.443s28.446-12.735 28.446-28.443z" />
<glyph unicode="remove-circle-outline" glyph-name="remove-circle-outline" data-tags="remove-circle_outline" d="M128 460.8c0-211.733 172.268-384 384-384s384 172.267 384 384c0 211.732-172.267 384-384 384s-384-172.268-384-384zM187.077 460.8c0 179.18 145.743 324.923 324.923 324.923 179.123 0 324.924-145.743 324.924-324.923 0-179.123-145.801-324.924-324.924-324.924-179.18 0-324.923 145.801-324.923 324.924zM341.333 492.8c-17.673 0-32-14.327-32-32s14.327-32 32-32h341.333c17.673 0 32 14.327 32 32s-14.327 32-32 32h-341.333z" />
<glyph unicode="remove" glyph-name="remove" data-tags="remove" d="M768 418.133h-512c-23.467 0-42.667 19.2-42.667 42.667s19.2 42.667 42.667 42.667h512c23.467 0 42.667-19.2 42.667-42.667s-19.2-42.667-42.667-42.667z" />
<glyph unicode="radio-unchecked" glyph-name="radio-unchecked" data-tags="radio-unchecked" d="M96 460.8c0 229.641 186.359 416 416 416s416-186.359 416-416c0-229.641-186.359-416-416-416s-416 186.359-416 416zM512 812.8c-194.295 0-352-157.705-352-352s157.705-352 352-352c194.295 0 352 157.705 352 352s-157.705 352-352 352z" />
<glyph unicode="radio-checked" glyph-name="radio-checked" data-tags="radio-checked" d="M512 876.8c-229.641 0-416-186.359-416-416s186.359-416 416-416c229.641 0 416 186.359 416 416s-186.359 416-416 416zM160 460.8c0 194.295 157.705 352 352 352s352-157.705 352-352c0-194.295-157.705-352-352-352s-352 157.705-352 352zM341.333 460.8c0 94.257 76.41 170.667 170.667 170.667 94.255 0 170.667-76.41 170.667-170.667 0-94.255-76.412-170.667-170.667-170.667-94.257 0-170.667 76.412-170.667 170.667z" />
</font>
</defs>
</svg>
